<?xml version="1.0" encoding="UTF-8" standalone="no"?>
<!-- Created with Inkscape (http://www.inkscape.org/) -->

<svg
   xmlns:dc="http://purl.org/dc/elements/1.1/"
   xmlns:cc="http://creativecommons.org/ns#"
   xmlns:rdf="http://www.w3.org/1999/02/22-rdf-syntax-ns#"
   xmlns:svg="http://www.w3.org/2000/svg"
   xmlns="http://www.w3.org/2000/svg"
   xmlns:xlink="http://www.w3.org/1999/xlink"
   xmlns:sodipodi="http://sodipodi.sourceforge.net/DTD/sodipodi-0.dtd"
   xmlns:inkscape="http://www.inkscape.org/namespaces/inkscape"
   width="150mm"
   height="103.40789mm"
   viewBox="0 0 150 103.40789"
   version="1.1"
   id="svg1589"
   inkscape:version="0.92.2 (5c3e80d, 2017-08-06)"
   sodipodi:docname="Model_2.svg">
  <defs
     id="defs1583">
    <marker
       inkscape:isstock="true"
       style="overflow:visible"
       id="marker14879"
       refX="0"
       refY="0"
       orient="auto"
       inkscape:stockid="EmptyTriangleOutL">
      <path
         inkscape:connector-curvature="0"
         transform="matrix(0.8,0,0,0.8,-4.8,0)"
         style="fill:#ffffff;fill-rule:evenodd;stroke:#000000;stroke-width:1.00000003pt;stroke-opacity:1"
         d="M 5.77,0 -2.88,5 V -5 Z"
         id="path14877" />
    </marker>
    <marker
       inkscape:isstock="true"
       style="overflow:visible"
       id="marker2727"
       refX="0"
       refY="0"
       orient="auto"
       inkscape:stockid="EmptyTriangleOutL">
      <path
         transform="matrix(0.8,0,0,0.8,-4.8,0)"
         style="fill:#ffffff;fill-rule:evenodd;stroke:#000000;stroke-width:1.00000003pt;stroke-opacity:1"
         d="M 5.77,0 -2.88,5 V -5 Z"
         id="path2725"
         inkscape:connector-curvature="0" />
    </marker>
    <marker
       inkscape:isstock="true"
       style="overflow:visible"
       id="marker2663"
       refX="0"
       refY="0"
       orient="auto"
       inkscape:stockid="EmptyTriangleOutL">
      <path
         transform="matrix(0.8,0,0,0.8,-4.8,0)"
         style="fill:#ffffff;fill-rule:evenodd;stroke:#000000;stroke-width:1.00000003pt;stroke-opacity:1"
         d="M 5.77,0 -2.88,5 V -5 Z"
         id="path2661"
         inkscape:connector-curvature="0" />
    </marker>
    <marker
       inkscape:stockid="EmptyTriangleOutL"
       orient="auto"
       refY="0"
       refX="0"
       id="marker2599"
       style="overflow:visible"
       inkscape:isstock="true"
       inkscape:collect="always">
      <path
         id="path2597"
         d="M 5.77,0 -2.88,5 V -5 Z"
         style="fill:#ffffff;fill-rule:evenodd;stroke:#000000;stroke-width:1.00000003pt;stroke-opacity:1"
         transform="matrix(0.8,0,0,0.8,-4.8,0)"
         inkscape:connector-curvature="0" />
    </marker>
    <marker
       inkscape:isstock="true"
       style="overflow:visible"
       id="marker2493"
       refX="0"
       refY="0"
       orient="auto"
       inkscape:stockid="EmptyTriangleOutL">
      <path
         transform="matrix(0.8,0,0,0.8,-4.8,0)"
         style="fill:#ffffff;fill-rule:evenodd;stroke:#000000;stroke-width:1.00000003pt;stroke-opacity:1"
         d="M 5.77,0 -2.88,5 V -5 Z"
         id="path2491"
         inkscape:connector-curvature="0" />
    </marker>
    <marker
       inkscape:isstock="true"
       style="overflow:visible"
       id="marker2441"
       refX="0"
       refY="0"
       orient="auto"
       inkscape:stockid="EmptyTriangleOutL">
      <path
         transform="matrix(0.8,0,0,0.8,-4.8,0)"
         style="fill:#ffffff;fill-rule:evenodd;stroke:#000000;stroke-width:1.00000003pt;stroke-opacity:1"
         d="M 5.77,0 -2.88,5 V -5 Z"
         id="path2439"
         inkscape:connector-curvature="0" />
    </marker>
    <marker
       inkscape:stockid="EmptyTriangleOutL"
       orient="auto"
       refY="0"
       refX="0"
       id="marker1363-2"
       style="overflow:visible"
       inkscape:isstock="true">
      <path
         inkscape:connector-curvature="0"
         id="path1361-4"
         d="M 5.77,0 -2.88,5 V -5 Z"
         style="fill:#ffffff;fill-rule:evenodd;stroke:#000000;stroke-width:1.00000003pt;stroke-opacity:1"
         transform="matrix(0.8,0,0,0.8,-4.8,0)" />
    </marker>
    <marker
       inkscape:stockid="EmptyTriangleOutL"
       orient="auto"
       refY="0"
       refX="0"
       id="marker1363-4"
       style="overflow:visible"
       inkscape:isstock="true">
      <path
         id="path1361-5"
         d="M 5.77,0 -2.88,5 V -5 Z"
         style="fill:#ffffff;fill-rule:evenodd;stroke:#000000;stroke-width:1.00000003pt;stroke-opacity:1"
         transform="matrix(0.8,0,0,0.8,-4.8,0)"
         inkscape:connector-curvature="0" />
    </marker>
    <marker
       inkscape:stockid="EmptyTriangleOutL"
       orient="auto"
       refY="0"
       refX="0"
       id="marker1363-4-4"
       style="overflow:visible"
       inkscape:isstock="true">
      <path
         id="path1361-5-8"
         d="M 5.77,0 -2.88,5 V -5 Z"
         style="fill:#ffffff;fill-rule:evenodd;stroke:#000000;stroke-width:1.00000003pt;stroke-opacity:1"
         transform="matrix(0.8,0,0,0.8,-4.8,0)"
         inkscape:connector-curvature="0" />
    </marker>
    <path
       d="m 52,289 q 7,42 54,97 47,55 116,56 35,0 64,-18 29,-18 43,-45 42,63 101,63 37,0 64,-22 27,-22 28,-59 0,-29 -14,-47 -14,-18 -27,-22 -13,-4 -23,-4 -19,0 -31,11 -12,11 -12,29 0,46 50,63 -11,13 -40,13 -13,0 -19,-2 -38,-16 -56,-66 -60,-221 -60,-258 0,-28 16,-40 16,-12 35,-12 37,0 73,33 36,33 49,81 3,10 6,11 3,1 16,2 h 4 q 15,0 15,-8 0,-1 -2,-11 Q 486,77 440,33 394,-11 333,-11 263,-11 227,52 186,-10 133,-10 h -6 q -49,0 -70,26 -21,26 -22,55 0,32 19,52 19,20 45,20 43,0 43,-42 Q 142,81 130,66 118,51 107,46 96,41 94,41 l -3,-1 q 0,-1 6,-4 6,-3 16,-7 10,-4 19,-3 36,0 62,45 9,16 23,68 14,52 28,108 14,56 16,66 5,27 5,39 0,28 -15,40 -15,12 -34,12 -40,0 -75,-32 -35,-32 -49,-82 -2,-9 -5,-10 -3,-1 -16,-2 H 58 q -6,6 -6,11 z"
       id="E1-MJMATHI-78"
       inkscape:connector-curvature="0"
       style="stroke-width:1" />
    <marker
       inkscape:isstock="true"
       style="overflow:visible"
       id="marker1363"
       refX="0"
       refY="0"
       orient="auto"
       inkscape:stockid="EmptyTriangleOutL">
      <path
         inkscape:connector-curvature="0"
         transform="matrix(0.8,0,0,0.8,-4.8,0)"
         style="fill:#ffffff;fill-rule:evenodd;stroke:#000000;stroke-width:1.00000003pt;stroke-opacity:1"
         d="M 5.77,0 -2.88,5 V -5 Z"
         id="path1361" />
    </marker>
    <marker
       inkscape:stockid="EmptyTriangleOutL"
       orient="auto"
       refY="0"
       refX="0"
       id="marker1137"
       style="overflow:visible"
       inkscape:isstock="true">
      <path
         inkscape:connector-curvature="0"
         id="path1135"
         d="M 5.77,0 -2.88,5 V -5 Z"
         style="fill:#ffffff;fill-rule:evenodd;stroke:#000000;stroke-width:1.00000003pt;stroke-opacity:1"
         transform="matrix(0.8,0,0,0.8,-4.8,0)" />
    </marker>
    <marker
       inkscape:isstock="true"
       style="overflow:visible"
       id="SquareL"
       refX="0"
       refY="0"
       orient="auto"
       inkscape:stockid="SquareL">
      <path
         inkscape:connector-curvature="0"
         transform="scale(0.8)"
         style="fill:#000000;fill-opacity:1;fill-rule:evenodd;stroke:#000000;stroke-width:1.00000003pt;stroke-opacity:1"
         d="M -5,-5 V 5 H 5 V -5 Z"
         id="path889" />
    </marker>
    <marker
       inkscape:isstock="true"
       style="overflow:visible"
       id="marker1363-4-43"
       refX="0"
       refY="0"
       orient="auto"
       inkscape:stockid="EmptyTriangleOutL">
      <path
         inkscape:connector-curvature="0"
         transform="matrix(0.8,0,0,0.8,-4.8,0)"
         style="fill:#ffffff;fill-rule:evenodd;stroke:#000000;stroke-width:1.00000003pt;stroke-opacity:1"
         d="M 5.77,0 -2.88,5 V -5 Z"
         id="path1361-7" />
    </marker>
    <marker
       inkscape:isstock="true"
       style="overflow:visible"
       id="marker1363-8"
       refX="0"
       refY="0"
       orient="auto"
       inkscape:stockid="EmptyTriangleOutL">
      <path
         inkscape:connector-curvature="0"
         transform="matrix(0.8,0,0,0.8,-4.8,0)"
         style="fill:#ffffff;fill-rule:evenodd;stroke:#000000;stroke-width:1.00000003pt;stroke-opacity:1"
         d="M 5.77,0 -2.88,5 V -5 Z"
         id="path1361-6" />
    </marker>
    <marker
       style="overflow:visible"
       id="marker1363-80"
       refX="0"
       refY="0"
       orient="auto">
      <path
         inkscape:connector-curvature="0"
         transform="matrix(0.8,0,0,0.8,-4.8,0)"
         style="fill:#ffffff;fill-rule:evenodd;stroke:#000000;stroke-width:1.00000003pt;stroke-opacity:1"
         d="M 5.77,0 -2.88,5 V -5 Z"
         id="path1361-70" />
    </marker>
    <marker
       style="overflow:visible"
       id="EmptyTriangleOutL-8"
       refX="0"
       refY="0"
       orient="auto">
      <path
         inkscape:connector-curvature="0"
         transform="matrix(0.8,0,0,0.8,-4.8,0)"
         style="fill:#ffffff;fill-rule:evenodd;stroke:#000000;stroke-width:1.00000003pt;stroke-opacity:1"
         d="M 5.77,0 -2.88,5 V -5 Z"
         id="path979-2" />
    </marker>
    <path
       inkscape:connector-curvature="0"
       style="stroke-width:1"
       id="E1-MJMATHI-78-3"
       d="m 52,289 q 7,42 54,97 47,55 116,56 35,0 64,-18 29,-18 43,-45 42,63 101,63 37,0 64,-22 27,-22 28,-59 0,-29 -14,-47 -14,-18 -27,-22 -13,-4 -23,-4 -19,0 -31,11 -12,11 -12,29 0,46 50,63 -11,13 -40,13 -13,0 -19,-2 -38,-16 -56,-66 -60,-221 -60,-258 0,-28 16,-40 16,-12 35,-12 37,0 73,33 36,33 49,81 3,10 6,11 3,1 16,2 h 4 q 15,0 15,-8 0,-1 -2,-11 Q 486,77 440,33 394,-11 333,-11 263,-11 227,52 186,-10 133,-10 h -6 q -49,0 -70,26 -21,26 -22,55 0,32 19,52 19,20 45,20 43,0 43,-42 Q 142,81 130,66 118,51 107,46 96,41 94,41 l -3,-1 q 0,-1 6,-4 6,-3 16,-7 10,-4 19,-3 36,0 62,45 9,16 23,68 14,52 28,108 14,56 16,66 5,27 5,39 0,28 -15,40 -15,12 -34,12 -40,0 -75,-32 -35,-32 -49,-82 -2,-9 -5,-10 -3,-1 -16,-2 H 58 q -6,6 -6,11 z" />
    <path
       inkscape:connector-curvature="0"
       style="stroke-width:1"
       id="E1-MJMATHI-78-2"
       d="m 52,289 q 7,42 54,97 47,55 116,56 35,0 64,-18 29,-18 43,-45 42,63 101,63 37,0 64,-22 27,-22 28,-59 0,-29 -14,-47 -14,-18 -27,-22 -13,-4 -23,-4 -19,0 -31,11 -12,11 -12,29 0,46 50,63 -11,13 -40,13 -13,0 -19,-2 -38,-16 -56,-66 -60,-221 -60,-258 0,-28 16,-40 16,-12 35,-12 37,0 73,33 36,33 49,81 3,10 6,11 3,1 16,2 h 4 q 15,0 15,-8 0,-1 -2,-11 Q 486,77 440,33 394,-11 333,-11 263,-11 227,52 186,-10 133,-10 h -6 q -49,0 -70,26 -21,26 -22,55 0,32 19,52 19,20 45,20 43,0 43,-42 Q 142,81 130,66 118,51 107,46 96,41 94,41 l -3,-1 q 0,-1 6,-4 6,-3 16,-7 10,-4 19,-3 36,0 62,45 9,16 23,68 14,52 28,108 14,56 16,66 5,27 5,39 0,28 -15,40 -15,12 -34,12 -40,0 -75,-32 -35,-32 -49,-82 -2,-9 -5,-10 -3,-1 -16,-2 H 58 q -6,6 -6,11 z" />
    <path
       inkscape:connector-curvature="0"
       style="stroke-width:1"
       id="E1-MJMATHI-79"
       d="m 21,287 q 0,14 15,48 15,34 48,71 33,37 74,36 41,0 66,-23 25,-23 26,-64 -2,-19 -3,-21 0,-3 -16,-46 -16,-43 -33,-97 -17,-54 -16,-86 0,-43 14,-60 14,-17 42,-18 23,0 43,11 20,11 31,23 11,12 27,33 0,1 5,20 5,19 14,59 9,40 19,74 38,150 42,157 13,27 43,27 13,0 21,-7 8,-7 11,-12 3,-5 2,-9 0,-13 -49,-210 -49,-197 -56,-216 -28,-83 -97,-132 -69,-49 -138,-50 -45,0 -79,22 -34,22 -34,66 0,22 7,37 7,15 19,22 12,7 20,10 8,3 17,3 44,0 44,-42 0,-20 -12,-35 -12,-15 -23,-20 -11,-5 -13,-5 l -3,-1 q 2,-5 19,-12 17,-7 34,-7 h 8 q 17,0 26,2 33,9 61,38 28,29 43,62 15,33 23,56 8,23 8,30 l -6,-4 q -6,-4 -19,-11 -13,-7 -26,-12 -20,-5 -39,-5 -46,0 -81,22 -35,22 -46,71 -1,7 -1,31 0,57 35,149 35,92 35,117 0,1 0,2 0,9 0,12 0,3 -4,7 -4,4 -11,4 h -4 Q 131,404 112,385 93,366 82,344 71,322 65,302 59,282 57,280 55,278 41,278 H 27 q -6,6 -6,9 z" />
    <marker
       inkscape:stockid="EmptyTriangleOutL"
       orient="auto"
       refY="0"
       refX="0"
       id="marker1363-0"
       style="overflow:visible"
       inkscape:isstock="true">
      <path
         id="path1361-5-5"
         d="M 5.77,0 -2.88,5 V -5 Z"
         style="fill:#ffffff;fill-rule:evenodd;stroke:#000000;stroke-width:1.00000003pt;stroke-opacity:1"
         transform="matrix(0.8,0,0,0.8,-4.8,0)"
         inkscape:connector-curvature="0" />
    </marker>
    <path
       d="m 52,289 q 7,42 54,97 47,55 116,56 35,0 64,-18 29,-18 43,-45 42,63 101,63 37,0 64,-22 27,-22 28,-59 0,-29 -14,-47 -14,-18 -27,-22 -13,-4 -23,-4 -19,0 -31,11 -12,11 -12,29 0,46 50,63 -11,13 -40,13 -13,0 -19,-2 -38,-16 -56,-66 -60,-221 -60,-258 0,-28 16,-40 16,-12 35,-12 37,0 73,33 36,33 49,81 3,10 6,11 3,1 16,2 h 4 q 15,0 15,-8 0,-1 -2,-11 Q 486,77 440,33 394,-11 333,-11 263,-11 227,52 186,-10 133,-10 h -6 q -49,0 -70,26 -21,26 -22,55 0,32 19,52 19,20 45,20 43,0 43,-42 Q 142,81 130,66 118,51 107,46 96,41 94,41 l -3,-1 q 0,-1 6,-4 6,-3 16,-7 10,-4 19,-3 36,0 62,45 9,16 23,68 14,52 28,108 14,56 16,66 5,27 5,39 0,28 -15,40 -15,12 -34,12 -40,0 -75,-32 -35,-32 -49,-82 -2,-9 -5,-10 -3,-1 -16,-2 H 58 q -6,6 -6,11 z"
       id="E1-MJMATHI-78-7"
       inkscape:connector-curvature="0"
       style="stroke-width:1" />
    <path
       d="m 52,289 q 7,42 54,97 47,55 116,56 35,0 64,-18 29,-18 43,-45 42,63 101,63 37,0 64,-22 27,-22 28,-59 0,-29 -14,-47 -14,-18 -27,-22 -13,-4 -23,-4 -19,0 -31,11 -12,11 -12,29 0,46 50,63 -11,13 -40,13 -13,0 -19,-2 -38,-16 -56,-66 -60,-221 -60,-258 0,-28 16,-40 16,-12 35,-12 37,0 73,33 36,33 49,81 3,10 6,11 3,1 16,2 h 4 q 15,0 15,-8 0,-1 -2,-11 Q 486,77 440,33 394,-11 333,-11 263,-11 227,52 186,-10 133,-10 h -6 q -49,0 -70,26 -21,26 -22,55 0,32 19,52 19,20 45,20 43,0 43,-42 Q 142,81 130,66 118,51 107,46 96,41 94,41 l -3,-1 q 0,-1 6,-4 6,-3 16,-7 10,-4 19,-3 36,0 62,45 9,16 23,68 14,52 28,108 14,56 16,66 5,27 5,39 0,28 -15,40 -15,12 -34,12 -40,0 -75,-32 -35,-32 -49,-82 -2,-9 -5,-10 -3,-1 -16,-2 H 58 q -6,6 -6,11 z"
       id="E1-MJMATHI-78-2-6"
       inkscape:connector-curvature="0"
       style="stroke-width:1" />
    <path
       d="m 21,287 q 0,14 15,48 15,34 48,71 33,37 74,36 41,0 66,-23 25,-23 26,-64 -2,-19 -3,-21 0,-3 -16,-46 -16,-43 -33,-97 -17,-54 -16,-86 0,-43 14,-60 14,-17 42,-18 23,0 43,11 20,11 31,23 11,12 27,33 0,1 5,20 5,19 14,59 9,40 19,74 38,150 42,157 13,27 43,27 13,0 21,-7 8,-7 11,-12 3,-5 2,-9 0,-13 -49,-210 -49,-197 -56,-216 -28,-83 -97,-132 -69,-49 -138,-50 -45,0 -79,22 -34,22 -34,66 0,22 7,37 7,15 19,22 12,7 20,10 8,3 17,3 44,0 44,-42 0,-20 -12,-35 -12,-15 -23,-20 -11,-5 -13,-5 l -3,-1 q 2,-5 19,-12 17,-7 34,-7 h 8 q 17,0 26,2 33,9 61,38 28,29 43,62 15,33 23,56 8,23 8,30 l -6,-4 q -6,-4 -19,-11 -13,-7 -26,-12 -20,-5 -39,-5 -46,0 -81,22 -35,22 -46,71 -1,7 -1,31 0,57 35,149 35,92 35,117 0,1 0,2 0,9 0,12 0,3 -4,7 -4,4 -11,4 h -4 Q 131,404 112,385 93,366 82,344 71,322 65,302 59,282 57,280 55,278 41,278 H 27 q -6,6 -6,9 z"
       id="E1-MJMATHI-79-4"
       inkscape:connector-curvature="0"
       style="stroke-width:1" />
    <marker
       inkscape:isstock="true"
       style="overflow:visible"
       id="marker1363-5"
       refX="0"
       refY="0"
       orient="auto"
       inkscape:stockid="EmptyTriangleOutL">
      <path
         inkscape:connector-curvature="0"
         transform="matrix(0.8,0,0,0.8,-4.8,0)"
         style="fill:#ffffff;fill-rule:evenodd;stroke:#000000;stroke-width:1.00000003pt;stroke-opacity:1"
         d="M 5.77,0 -2.88,5 V -5 Z"
         id="path1361-1" />
    </marker>
    <marker
       inkscape:stockid="EmptyTriangleOutL"
       orient="auto"
       refY="0"
       refX="0"
       id="marker1137-7"
       style="overflow:visible"
       inkscape:isstock="true">
      <path
         inkscape:connector-curvature="0"
         id="path1135-2"
         d="M 5.77,0 -2.88,5 V -5 Z"
         style="fill:#ffffff;fill-rule:evenodd;stroke:#000000;stroke-width:1.00000003pt;stroke-opacity:1"
         transform="matrix(0.8,0,0,0.8,-4.8,0)" />
    </marker>
    <marker
       inkscape:isstock="true"
       style="overflow:visible"
       id="SquareL-3"
       refX="0"
       refY="0"
       orient="auto"
       inkscape:stockid="SquareL">
      <path
         inkscape:connector-curvature="0"
         transform="scale(0.8)"
         style="fill:#000000;fill-opacity:1;fill-rule:evenodd;stroke:#000000;stroke-width:1.00000003pt;stroke-opacity:1"
         d="M -5,-5 V 5 H 5 V -5 Z"
         id="path889-1" />
    </marker>
    <marker
       inkscape:isstock="true"
       style="overflow:visible"
       id="marker1363-4-2"
       refX="0"
       refY="0"
       orient="auto"
       inkscape:stockid="EmptyTriangleOutL">
      <path
         inkscape:connector-curvature="0"
         transform="matrix(0.8,0,0,0.8,-4.8,0)"
         style="fill:#ffffff;fill-rule:evenodd;stroke:#000000;stroke-width:1.00000003pt;stroke-opacity:1"
         d="M 5.77,0 -2.88,5 V -5 Z"
         id="path1361-7-6" />
    </marker>
    <marker
       inkscape:isstock="true"
       style="overflow:visible"
       id="marker1363-8-1"
       refX="0"
       refY="0"
       orient="auto"
       inkscape:stockid="EmptyTriangleOutL">
      <path
         inkscape:connector-curvature="0"
         transform="matrix(0.8,0,0,0.8,-4.8,0)"
         style="fill:#ffffff;fill-rule:evenodd;stroke:#000000;stroke-width:1.00000003pt;stroke-opacity:1"
         d="M 5.77,0 -2.88,5 V -5 Z"
         id="path1361-6-2" />
    </marker>
    <marker
       style="overflow:visible"
       id="marker1363-80-1"
       refX="0"
       refY="0"
       orient="auto">
      <path
         inkscape:connector-curvature="0"
         transform="matrix(0.8,0,0,0.8,-4.8,0)"
         style="fill:#ffffff;fill-rule:evenodd;stroke:#000000;stroke-width:1.00000003pt;stroke-opacity:1"
         d="M 5.77,0 -2.88,5 V -5 Z"
         id="path1361-70-0" />
    </marker>
    <marker
       style="overflow:visible"
       id="EmptyTriangleOutL-8-0"
       refX="0"
       refY="0"
       orient="auto">
      <path
         inkscape:connector-curvature="0"
         transform="matrix(0.8,0,0,0.8,-4.8,0)"
         style="fill:#ffffff;fill-rule:evenodd;stroke:#000000;stroke-width:1.00000003pt;stroke-opacity:1"
         d="M 5.77,0 -2.88,5 V -5 Z"
         id="path979-2-6" />
    </marker>
    <path
       inkscape:connector-curvature="0"
       style="stroke-width:1"
       id="E1-MJMATHI-78-8"
       d="m 52,289 q 7,42 54,97 47,55 116,56 35,0 64,-18 29,-18 43,-45 42,63 101,63 37,0 64,-22 27,-22 28,-59 0,-29 -14,-47 -14,-18 -27,-22 -13,-4 -23,-4 -19,0 -31,11 -12,11 -12,29 0,46 50,63 -11,13 -40,13 -13,0 -19,-2 -38,-16 -56,-66 -60,-221 -60,-258 0,-28 16,-40 16,-12 35,-12 37,0 73,33 36,33 49,81 3,10 6,11 3,1 16,2 h 4 q 15,0 15,-8 0,-1 -2,-11 Q 486,77 440,33 394,-11 333,-11 263,-11 227,52 186,-10 133,-10 h -6 q -49,0 -70,26 -21,26 -22,55 0,32 19,52 19,20 45,20 43,0 43,-42 Q 142,81 130,66 118,51 107,46 96,41 94,41 l -3,-1 q 0,-1 6,-4 6,-3 16,-7 10,-4 19,-3 36,0 62,45 9,16 23,68 14,52 28,108 14,56 16,66 5,27 5,39 0,28 -15,40 -15,12 -34,12 -40,0 -75,-32 -35,-32 -49,-82 -2,-9 -5,-10 -3,-1 -16,-2 H 58 q -6,6 -6,11 z" />
    <path
       inkscape:connector-curvature="0"
       style="stroke-width:1"
       id="E1-MJMATHI-78-2-2"
       d="m 52,289 q 7,42 54,97 47,55 116,56 35,0 64,-18 29,-18 43,-45 42,63 101,63 37,0 64,-22 27,-22 28,-59 0,-29 -14,-47 -14,-18 -27,-22 -13,-4 -23,-4 -19,0 -31,11 -12,11 -12,29 0,46 50,63 -11,13 -40,13 -13,0 -19,-2 -38,-16 -56,-66 -60,-221 -60,-258 0,-28 16,-40 16,-12 35,-12 37,0 73,33 36,33 49,81 3,10 6,11 3,1 16,2 h 4 q 15,0 15,-8 0,-1 -2,-11 Q 486,77 440,33 394,-11 333,-11 263,-11 227,52 186,-10 133,-10 h -6 q -49,0 -70,26 -21,26 -22,55 0,32 19,52 19,20 45,20 43,0 43,-42 Q 142,81 130,66 118,51 107,46 96,41 94,41 l -3,-1 q 0,-1 6,-4 6,-3 16,-7 10,-4 19,-3 36,0 62,45 9,16 23,68 14,52 28,108 14,56 16,66 5,27 5,39 0,28 -15,40 -15,12 -34,12 -40,0 -75,-32 -35,-32 -49,-82 -2,-9 -5,-10 -3,-1 -16,-2 H 58 q -6,6 -6,11 z" />
    <path
       inkscape:connector-curvature="0"
       style="stroke-width:1"
       id="E1-MJMATHI-79-8"
       d="m 21,287 q 0,14 15,48 15,34 48,71 33,37 74,36 41,0 66,-23 25,-23 26,-64 -2,-19 -3,-21 0,-3 -16,-46 -16,-43 -33,-97 -17,-54 -16,-86 0,-43 14,-60 14,-17 42,-18 23,0 43,11 20,11 31,23 11,12 27,33 0,1 5,20 5,19 14,59 9,40 19,74 38,150 42,157 13,27 43,27 13,0 21,-7 8,-7 11,-12 3,-5 2,-9 0,-13 -49,-210 -49,-197 -56,-216 -28,-83 -97,-132 -69,-49 -138,-50 -45,0 -79,22 -34,22 -34,66 0,22 7,37 7,15 19,22 12,7 20,10 8,3 17,3 44,0 44,-42 0,-20 -12,-35 -12,-15 -23,-20 -11,-5 -13,-5 l -3,-1 q 2,-5 19,-12 17,-7 34,-7 h 8 q 17,0 26,2 33,9 61,38 28,29 43,62 15,33 23,56 8,23 8,30 l -6,-4 q -6,-4 -19,-11 -13,-7 -26,-12 -20,-5 -39,-5 -46,0 -81,22 -35,22 -46,71 -1,7 -1,31 0,57 35,149 35,92 35,117 0,1 0,2 0,9 0,12 0,3 -4,7 -4,4 -11,4 h -4 Q 131,404 112,385 93,366 82,344 71,322 65,302 59,282 57,280 55,278 41,278 H 27 q -6,6 -6,9 z" />
    <marker
       inkscape:stockid="EmptyTriangleOutL"
       orient="auto"
       refY="0"
       refX="0"
       id="marker1363-0-3"
       style="overflow:visible"
       inkscape:isstock="true">
      <path
         id="path1361-5-7"
         d="M 5.77,0 -2.88,5 V -5 Z"
         style="fill:#ffffff;fill-rule:evenodd;stroke:#000000;stroke-width:1.00000003pt;stroke-opacity:1"
         transform="matrix(0.8,0,0,0.8,-4.8,0)"
         inkscape:connector-curvature="0" />
    </marker>
    <marker
       inkscape:stockid="EmptyTriangleOutL"
       orient="auto"
       refY="0"
       refX="0"
       id="EmptyTriangleOutL-86"
       style="overflow:visible"
       inkscape:isstock="true"
       inkscape:collect="always">
      <path
         id="path979-23"
         d="M 5.77,0 -2.88,5 V -5 Z"
         style="fill:#ffffff;fill-rule:evenodd;stroke:#000000;stroke-width:1.00000003pt;stroke-opacity:1"
         transform="matrix(0.8,0,0,0.8,-4.8,0)"
         inkscape:connector-curvature="0" />
    </marker>
    <path
       d="m 52,289 q 7,42 54,97 47,55 116,56 35,0 64,-18 29,-18 43,-45 42,63 101,63 37,0 64,-22 27,-22 28,-59 0,-29 -14,-47 -14,-18 -27,-22 -13,-4 -23,-4 -19,0 -31,11 -12,11 -12,29 0,46 50,63 -11,13 -40,13 -13,0 -19,-2 -38,-16 -56,-66 -60,-221 -60,-258 0,-28 16,-40 16,-12 35,-12 37,0 73,33 36,33 49,81 3,10 6,11 3,1 16,2 h 4 q 15,0 15,-8 0,-1 -2,-11 Q 486,77 440,33 394,-11 333,-11 263,-11 227,52 186,-10 133,-10 h -6 q -49,0 -70,26 -21,26 -22,55 0,32 19,52 19,20 45,20 43,0 43,-42 Q 142,81 130,66 118,51 107,46 96,41 94,41 l -3,-1 q 0,-1 6,-4 6,-3 16,-7 10,-4 19,-3 36,0 62,45 9,16 23,68 14,52 28,108 14,56 16,66 5,27 5,39 0,28 -15,40 -15,12 -34,12 -40,0 -75,-32 -35,-32 -49,-82 -2,-9 -5,-10 -3,-1 -16,-2 H 58 q -6,6 -6,11 z"
       id="E1-MJMATHI-78-7-0"
       inkscape:connector-curvature="0"
       style="stroke-width:1" />
    <path
       d="m 52,289 q 7,42 54,97 47,55 116,56 35,0 64,-18 29,-18 43,-45 42,63 101,63 37,0 64,-22 27,-22 28,-59 0,-29 -14,-47 -14,-18 -27,-22 -13,-4 -23,-4 -19,0 -31,11 -12,11 -12,29 0,46 50,63 -11,13 -40,13 -13,0 -19,-2 -38,-16 -56,-66 -60,-221 -60,-258 0,-28 16,-40 16,-12 35,-12 37,0 73,33 36,33 49,81 3,10 6,11 3,1 16,2 h 4 q 15,0 15,-8 0,-1 -2,-11 Q 486,77 440,33 394,-11 333,-11 263,-11 227,52 186,-10 133,-10 h -6 q -49,0 -70,26 -21,26 -22,55 0,32 19,52 19,20 45,20 43,0 43,-42 Q 142,81 130,66 118,51 107,46 96,41 94,41 l -3,-1 q 0,-1 6,-4 6,-3 16,-7 10,-4 19,-3 36,0 62,45 9,16 23,68 14,52 28,108 14,56 16,66 5,27 5,39 0,28 -15,40 -15,12 -34,12 -40,0 -75,-32 -35,-32 -49,-82 -2,-9 -5,-10 -3,-1 -16,-2 H 58 q -6,6 -6,11 z"
       id="E1-MJMATHI-78-2-6-4"
       inkscape:connector-curvature="0"
       style="stroke-width:1" />
    <path
       d="m 21,287 q 0,14 15,48 15,34 48,71 33,37 74,36 41,0 66,-23 25,-23 26,-64 -2,-19 -3,-21 0,-3 -16,-46 -16,-43 -33,-97 -17,-54 -16,-86 0,-43 14,-60 14,-17 42,-18 23,0 43,11 20,11 31,23 11,12 27,33 0,1 5,20 5,19 14,59 9,40 19,74 38,150 42,157 13,27 43,27 13,0 21,-7 8,-7 11,-12 3,-5 2,-9 0,-13 -49,-210 -49,-197 -56,-216 -28,-83 -97,-132 -69,-49 -138,-50 -45,0 -79,22 -34,22 -34,66 0,22 7,37 7,15 19,22 12,7 20,10 8,3 17,3 44,0 44,-42 0,-20 -12,-35 -12,-15 -23,-20 -11,-5 -13,-5 l -3,-1 q 2,-5 19,-12 17,-7 34,-7 h 8 q 17,0 26,2 33,9 61,38 28,29 43,62 15,33 23,56 8,23 8,30 l -6,-4 q -6,-4 -19,-11 -13,-7 -26,-12 -20,-5 -39,-5 -46,0 -81,22 -35,22 -46,71 -1,7 -1,31 0,57 35,149 35,92 35,117 0,1 0,2 0,9 0,12 0,3 -4,7 -4,4 -11,4 h -4 Q 131,404 112,385 93,366 82,344 71,322 65,302 59,282 57,280 55,278 41,278 H 27 q -6,6 -6,9 z"
       id="E1-MJMATHI-79-4-8"
       inkscape:connector-curvature="0"
       style="stroke-width:1" />
    <path
       d="m 35,200 q 0,102 39,215 39,113 106,195 67,82 139,94 1,0 8,0 7,0 12,1 54,-4 84,-49 39,-60 39,-161 Q 462,380 417,261 372,142 302,66 232,-10 168,-10 h -7 q -36,0 -62,20 -26,20 -39,53 -13,33 -19,67 -6,34 -6,70 z m 348,366 q 0,102 -53,102 -36,0 -70,-45 -34,-45 -56,-102 -22,-57 -34,-100 -12,-43 -13,-50 49,-1 97,-1 l 97,1 q 1,1 8,33 7,32 16,80 9,48 8,82 z M 113,132 q 0,-106 53,-106 15,0 32,10 17,10 41,38 24,28 48,87 24,59 48,146 l 5,17 H 145 q 0,-3 -9,-38 -9,-35 -16,-78 -7,-43 -7,-76 z"
       id="E1-MJMATHI-3B8"
       inkscape:connector-curvature="0"
       style="stroke-width:1" />
    <path
       d="m 213,578 -13,-5 q -14,-5 -40,-10 -26,-5 -58,-7 H 83 v 46 h 19 q 47,2 87,15 40,13 56,24 16,11 28,22 2,3 12,3 9,0 17,-6 V 361 l 1,-300 q 7,-7 12,-9 5,-2 24,-4 19,-2 62,-2 h 26 V 0 H 416 Q 395,3 257,3 121,3 100,0 H 88 v 46 h 26 q 22,0 38,0 16,0 25,1 9,1 16,3 7,2 8,2 1,0 6,5 5,5 6,4 z"
       id="E1-MJMAIN-31"
       inkscape:connector-curvature="0"
       style="stroke-width:1" />
    <path
       d="m 35,200 q 0,102 39,215 39,113 106,195 67,82 139,94 1,0 8,0 7,0 12,1 54,-4 84,-49 39,-60 39,-161 Q 462,380 417,261 372,142 302,66 232,-10 168,-10 h -7 q -36,0 -62,20 -26,20 -39,53 -13,33 -19,67 -6,34 -6,70 z m 348,366 q 0,102 -53,102 -36,0 -70,-45 -34,-45 -56,-102 -22,-57 -34,-100 -12,-43 -13,-50 49,-1 97,-1 l 97,1 q 1,1 8,33 7,32 16,80 9,48 8,82 z M 113,132 q 0,-106 53,-106 15,0 32,10 17,10 41,38 24,28 48,87 24,59 48,146 l 5,17 H 145 q 0,-3 -9,-38 -9,-35 -16,-78 -7,-43 -7,-76 z"
       id="E1-MJMATHI-3B8-7"
       inkscape:connector-curvature="0"
       style="stroke-width:1" />
    <path
       d="m 109,429 q -27,0 -43,18 -16,18 -16,44 0,71 53,123 53,52 132,52 91,0 152,-56 61,-56 62,-145 0,-43 -20,-82 -20,-39 -48,-68 -28,-29 -80,-74 -36,-31 -100,-92 l -59,-56 76,-1 q 157,0 167,5 7,2 24,89 v 3 h 40 v -3 Q 448,183 436,95 424,7 421,3 V 0 H 50 v 19 12 q 0,7 6,15 6,8 30,35 29,32 50,56 9,10 34,37 25,27 34,37 9,10 29,33 20,23 28,34 8,11 23,30 15,19 21,32 6,13 15,29 9,16 13,32 4,16 7,30 3,14 3,33 0,63 -34,109 -34,46 -97,46 -33,0 -58,-17 -25,-17 -35,-33 -10,-16 -10,-19 0,-1 5,-1 18,0 37,-14 19,-14 19,-46 0,-25 -16,-42 -16,-17 -45,-18 z"
       id="E1-MJMAIN-32"
       inkscape:connector-curvature="0"
       style="stroke-width:1" />
    <path
       d="m 35,200 q 0,102 39,215 39,113 106,195 67,82 139,94 1,0 8,0 7,0 12,1 54,-4 84,-49 39,-60 39,-161 Q 462,380 417,261 372,142 302,66 232,-10 168,-10 h -7 q -36,0 -62,20 -26,20 -39,53 -13,33 -19,67 -6,34 -6,70 z m 348,366 q 0,102 -53,102 -36,0 -70,-45 -34,-45 -56,-102 -22,-57 -34,-100 -12,-43 -13,-50 49,-1 97,-1 l 97,1 q 1,1 8,33 7,32 16,80 9,48 8,82 z M 113,132 q 0,-106 53,-106 15,0 32,10 17,10 41,38 24,28 48,87 24,59 48,146 l 5,17 H 145 q 0,-3 -9,-38 -9,-35 -16,-78 -7,-43 -7,-76 z"
       id="E1-MJMATHI-3B8-0"
       inkscape:connector-curvature="0"
       style="stroke-width:1" />
    <path
       d="m 127,463 q -27,0 -42,17 -15,17 -16,44 0,55 48,98 48,43 116,43 35,0 44,-1 74,-12 113,-53 39,-41 40,-89 0,-52 -34,-101 -34,-49 -94,-71 l -3,-2 q 0,-1 9,-3 9,-2 29,-9 20,-7 38,-21 82,-53 82,-140 0,-79 -62,-138 -62,-59 -157,-59 -80,0 -138,43 -58,43 -58,109 0,28 18,45 18,17 45,18 28,0 46,-18 18,-18 18,-45 0,-11 -3,-20 -3,-9 -7,-16 -4,-7 -11,-12 -7,-5 -12,-8 -5,-3 -10,-4 -5,-1 -8,-3 l -4,-1 q 51,-45 124,-45 55,0 83,53 17,33 17,101 v 20 q 0,95 -64,127 -15,6 -61,7 l -42,1 -3,2 q -2,3 -2,16 0,18 8,18 28,0 58,5 34,5 62,42 28,37 28,112 v 8 q 0,57 -35,79 -22,14 -47,14 -32,0 -59,-11 -27,-11 -38,-23 -11,-12 -11,-12 h 3 q 3,-1 8,-2 5,-1 10,-5 5,-4 12,-7 7,-3 10,-11 3,-8 8,-15 5,-7 3,-20 0,-22 -14,-39 -14,-17 -45,-18 z"
       id="E1-MJMAIN-33"
       inkscape:connector-curvature="0"
       style="stroke-width:1" />
    <path
       d="M21 287Q21 301 36 335T84 406T158 442Q199 442 224 419T250 355Q248 336 247 334Q247 331 231 288T198 191T182 105Q182 62 196 45T238 27Q261 27 281 38T312 61T339 94Q339 95 344 114T358 173T377 247Q415 397 419 404Q432 431 462 431Q475 431 483 424T494 412T496 403Q496 390 447 193T391 -23Q363 -106 294 -155T156 -205Q111 -205 77 -183T43 -117Q43 -95 50 -80T69 -58T89 -48T106 -45Q150 -45 150 -87Q150 -107 138 -122T115 -142T102 -147L99 -148Q101 -153 118 -160T152 -167H160Q177 -167 186 -165Q219 -156 247 -127T290 -65T313 -9T321 21L315 17Q309 13 296 6T270 -6Q250 -11 231 -11Q185 -11 150 11T104 82Q103 89 103 113Q103 170 138 262T173 379Q173 380 173 381Q173 390 173 393T169 400T158 404H154Q131 404 112 385T82 344T65 302T57 280Q55 278 41 278H27Q21 284 21 287Z"
       id="E1-MJMATHI-79-0"
       stroke-width="1" />
    <path
       d="M112 560L249 694L257 686Q387 562 387 560L361 531Q359 532 303 581L250 627L195 580Q182 569 169 557T148 538L140 532Q138 530 125 546L112 560Z"
       id="E1-MJMAIN-5E"
       stroke-width="1" />
  </defs>
  <sodipodi:namedview
     id="base"
     pagecolor="#ffffff"
     bordercolor="#666666"
     borderopacity="1.0"
     inkscape:pageopacity="0.0"
     inkscape:pageshadow="2"
     inkscape:zoom="1.4142136"
     inkscape:cx="225.19735"
     inkscape:cy="139.51303"
     inkscape:document-units="mm"
     inkscape:current-layer="layer1"
     showgrid="false"
     inkscape:window-width="1920"
     inkscape:window-height="1017"
     inkscape:window-x="-8"
     inkscape:window-y="-8"
     inkscape:window-maximized="1" />
  <metadata
     id="metadata1586">
    <rdf:RDF>
      <cc:Work
         rdf:about="">
        <dc:format>image/svg+xml</dc:format>
        <dc:type
           rdf:resource="http://purl.org/dc/dcmitype/StillImage" />
        <dc:title></dc:title>
      </cc:Work>
    </rdf:RDF>
  </metadata>
  <g
     inkscape:label="Layer 1"
     inkscape:groupmode="layer"
     id="layer1"
     transform="translate(-26.44025,-13.645832)"
     style="display:inline">
    <text
       id="text1573-7"
       y="101.17054"
       x="90.721069"
       style="font-style:normal;font-weight:normal;font-size:10.58333302px;line-height:1.25;font-family:sans-serif;letter-spacing:0px;word-spacing:0px;fill:#000000;fill-opacity:1;stroke:none;stroke-width:0.26458332"
       xml:space="preserve"><tspan
         style="font-size:4.93888903px;stroke-width:0.26458332"
         y="110.82603"
         x="90.721069"
         id="tspan1571-9"
         sodipodi:role="line" /></text>
    <text
       xml:space="preserve"
       style="font-style:normal;font-weight:normal;font-size:4.93888903px;line-height:1.25;font-family:sans-serif;letter-spacing:0px;word-spacing:0px;fill:#000000;fill-opacity:1;stroke:none;stroke-width:0.26458332"
       x="91.611977"
       y="58.081253"
       id="text1565"><tspan
         sodipodi:role="line"
         id="tspan1563"
         x="91.611977"
         y="62.587151"
         style="font-size:4.93888903px;stroke-width:0.26458332" /></text>
    <g
       id="g15413">
      <rect
         style="fill:#000000;fill-opacity:0;stroke:#000000;stroke-width:0.5;stroke-miterlimit:4;stroke-dasharray:none;stroke-opacity:1"
         y="13.895832"
         x="65.060043"
         height="30.691668"
         width="72.760414"
         id="rect10-7-5" />
      <path
         inkscape:connector-curvature="0"
         id="path817-1-0"
         d="m 33.963086,29.241666 h 30.956251 v 0 0"
         style="fill:none;stroke:#000000;stroke-width:0.5;stroke-linecap:butt;stroke-linejoin:miter;stroke-miterlimit:4;stroke-dasharray:none;stroke-opacity:1;marker-start:url(#EmptyTriangleOutL-86)" />
      <path
         style="fill:none;stroke:#000000;stroke-width:0.5;stroke-linecap:butt;stroke-linejoin:miter;stroke-miterlimit:4;stroke-dasharray:none;stroke-opacity:1;marker-end:url(#marker1363-0-3)"
         d="m 137.64951,29.241666 h 30.95625 v 0 0"
         id="path1133-5-8"
         inkscape:connector-curvature="0" />
      <g
         transform="matrix(0.00702734,0,0,0.00702734,29.901976,24.132027)"
         id="g7549"
         style="color:#5d5d5d;font-size:x-large">
        <g
           style="fill:currentColor;stroke:currentColor;stroke-width:0"
           transform="scale(1,-1)"
           aria-hidden="true"
           id="g7538">
          <use
             height="100%"
             width="100%"
             xlink:href="#E1-MJMATHI-78-7-0"
             x="0"
             y="0"
             id="use7536" />
        </g>
      </g>
      <g
         transform="matrix(0.00702642,0,0,0.00702642,165.55625,23.489805)"
         id="g7615"
         style="color:#5d5d5d;font-size:x-large">
        <g
           style="fill:currentColor;stroke:currentColor;stroke-width:0"
           transform="scale(1,-1)"
           aria-hidden="true"
           id="g7604">
          <use
             height="100%"
             width="100%"
             xlink:href="#E1-MJMATHI-79-4-8"
             x="0"
             y="0"
             id="use7602" />
        </g>
      </g>
      <g
         id="text1569-6"
         style="font-style:normal;font-weight:normal;font-size:10.58333302px;line-height:1.25;font-family:sans-serif;letter-spacing:0px;word-spacing:0px;fill:#000000;fill-opacity:1;stroke:none;stroke-width:0.26458332"
         aria-label="Natural"
         transform="translate(-1.8795399,19.843752)">
        <path
           inkscape:connector-curvature="0"
           id="path9747"
           style="font-size:4.93888903px;stroke-width:0.26458332"
           d="M 97.480177,7.2812347 H 96.889343 L 95.186777,4.0690276 v 3.2122071 h -0.44614 V 3.6904116 h 0.740351 L 97.034037,6.622877 V 3.6904116 h 0.44614 z" />
        <path
           inkscape:connector-curvature="0"
           id="path9749"
           style="font-size:4.93888903px;stroke-width:0.26458332"
           d="m 100.49222,7.2812347 h -0.45096 V 6.9942583 q -0.06029,0.040997 -0.163985,0.1157552 -0.101286,0.072347 -0.197749,0.1157552 -0.113344,0.055466 -0.260449,0.09164 -0.147106,0.038585 -0.344854,0.038585 -0.364147,0 -0.617361,-0.2411567 -0.253215,-0.2411567 -0.253215,-0.6149495 0,-0.306269 0.130225,-0.4943713 0.132636,-0.1905137 0.376204,-0.2990342 0.24598,-0.1085206 0.590834,-0.1471056 0.344854,-0.038585 0.74035,-0.057878 v -0.069935 q 0,-0.1543403 -0.05546,-0.2556261 -0.05305,-0.1012858 -0.15434,-0.1591634 -0.09646,-0.055466 -0.231511,-0.074759 -0.135047,-0.019292 -0.282153,-0.019292 -0.178456,0 -0.397909,0.048231 -0.219452,0.04582 -0.453374,0.1350478 h -0.02412 V 4.6453921 q 0.132636,-0.036173 0.383439,-0.079582 0.250803,-0.043408 0.494372,-0.043408 0.284564,0 0.494371,0.048231 0.212215,0.04582 0.366555,0.1591635 0.15193,0.110932 0.23151,0.2869764 0.0796,0.1760444 0.0796,0.4364936 z M 100.04126,6.6180538 V 5.8680565 q -0.207394,0.012058 -0.489547,0.036174 -0.279742,0.024116 -0.443728,0.069935 -0.195337,0.055466 -0.315916,0.1736328 -0.120578,0.1157552 -0.120578,0.3207384 0,0.2315104 0.139871,0.3496772 0.139871,0.1157552 0.426847,0.1157552 0.238745,0 0.436494,-0.091639 0.197748,-0.094051 0.366557,-0.2242763 z" />
        <path
           inkscape:connector-curvature="0"
           id="path9751"
           style="font-size:4.93888903px;stroke-width:0.26458332"
           d="m 102.76874,7.2571191 q -0.12781,0.033762 -0.27974,0.055466 -0.14952,0.021704 -0.26768,0.021704 -0.41238,0 -0.62701,-0.2218641 -0.21463,-0.2218642 -0.21463,-0.7114123 V 4.9685421 h -0.30627 V 4.5875145 h 0.30627 v -0.774113 h 0.45338 v 0.774113 h 0.93568 v 0.3810276 h -0.93568 v 1.2274875 q 0,0.2122179 0.01,0.3327963 0.01,0.1181667 0.0675,0.2218641 0.053,0.096463 0.14469,0.1422825 0.0941,0.043408 0.28456,0.043408 0.11094,0 0.23152,-0.03135 0.12057,-0.033762 0.17363,-0.055466 h 0.0241 z" />
        <path
           inkscape:connector-curvature="0"
           id="path9753"
           style="font-size:4.93888903px;stroke-width:0.26458332"
           d="m 105.55169,7.2812347 h -0.45337 V 6.9822004 q -0.2291,0.1808676 -0.43891,0.2773302 -0.2098,0.096463 -0.46302,0.096463 -0.42444,0 -0.66077,-0.2580376 -0.23633,-0.2604493 -0.23633,-0.7620552 v -1.748386 h 0.45337 v 1.5337566 q 0,0.2049831 0.0193,0.3520887 0.0193,0.144694 0.082,0.2483914 0.0651,0.106109 0.16881,0.1543403 0.1037,0.048231 0.30144,0.048231 0.17605,0 0.38344,-0.091639 0.20981,-0.09164 0.39068,-0.233922 V 4.5875145 h 0.45337 z" />
        <path
           inkscape:connector-curvature="0"
           id="path9755"
           style="font-size:4.93888903px;stroke-width:0.26458332"
           d="m 108.12483,5.0818857 h -0.0241 q -0.10129,-0.024116 -0.19775,-0.033762 -0.094,-0.012058 -0.22428,-0.012058 -0.2098,0 -0.40514,0.094051 -0.19534,0.09164 -0.3762,0.2387451 v 1.9123725 h -0.45338 V 4.5875145 h 0.45338 V 4.985423 q 0.27009,-0.217041 0.47507,-0.306269 0.2074,-0.091639 0.42203,-0.091639 0.11817,0 0.17122,0.00723 0.053,0.00482 0.15916,0.021704 z" />
        <path
           inkscape:connector-curvature="0"
           id="path9757"
           style="font-size:4.93888903px;stroke-width:0.26458332"
           d="m 110.56293,7.2812347 h -0.45096 V 6.9942583 q -0.0603,0.040997 -0.16399,0.1157552 -0.10129,0.072347 -0.19775,0.1157552 -0.11334,0.055466 -0.26045,0.09164 -0.1471,0.038585 -0.34485,0.038585 -0.36415,0 -0.61736,-0.2411567 -0.25322,-0.2411567 -0.25322,-0.6149495 0,-0.306269 0.13023,-0.4943713 0.13263,-0.1905137 0.3762,-0.2990342 0.24598,-0.1085206 0.59083,-0.1471056 0.34486,-0.038585 0.74036,-0.057878 v -0.069935 q 0,-0.1543403 -0.0555,-0.2556261 -0.0531,-0.1012858 -0.15434,-0.1591634 -0.0965,-0.055466 -0.23151,-0.074759 -0.13505,-0.019292 -0.28216,-0.019292 -0.17845,0 -0.3979,0.048231 -0.21946,0.04582 -0.45338,0.1350478 h -0.0241 V 4.6453921 q 0.13263,-0.036173 0.38344,-0.079582 0.2508,-0.043408 0.49437,-0.043408 0.28456,0 0.49437,0.048231 0.21222,0.04582 0.36656,0.1591635 0.15192,0.110932 0.23151,0.2869764 0.0796,0.1760444 0.0796,0.4364936 z M 110.11197,6.6180538 V 5.8680565 q -0.2074,0.012058 -0.48955,0.036174 -0.27974,0.024116 -0.44373,0.069935 -0.19534,0.055466 -0.31592,0.1736328 -0.12057,0.1157552 -0.12057,0.3207384 0,0.2315104 0.13987,0.3496772 0.13987,0.1157552 0.42684,0.1157552 0.23875,0 0.4365,-0.091639 0.19775,-0.094051 0.36656,-0.2242763 z" />
        <path
           inkscape:connector-curvature="0"
           id="path9759"
           style="font-size:4.93888903px;stroke-width:0.26458332"
           d="m 111.89894,7.2812347 h -0.45338 V 3.5288366 h 0.45338 z" />
      </g>
      <g
         id="text1573-6"
         style="font-style:normal;font-weight:normal;font-size:10.58333302px;line-height:1.25;font-family:sans-serif;letter-spacing:0px;word-spacing:0px;fill:#000000;fill-opacity:1;stroke:none;stroke-width:0.26458332"
         aria-label="Phenomena"
         transform="translate(-1.8795399,19.843752)">
        <path
           inkscape:connector-curvature="0"
           id="path9762"
           style="font-size:4.93888903px;stroke-width:0.26458332"
           d="m 91.617663,12.977686 q 0,0.238745 -0.0844,0.443728 -0.08199,0.202572 -0.23151,0.352089 -0.185691,0.185691 -0.438905,0.279742 -0.253215,0.09164 -0.639065,0.09164 h -0.477491 v 1.33842 h -0.47749 v -3.590823 h 0.974273 q 0.32315,0 0.547426,0.05547 0.224276,0.05305 0.397908,0.16881 0.204984,0.137459 0.315916,0.342442 0.113343,0.204983 0.113343,0.518487 z m -0.496782,0.01206 q 0,-0.185691 -0.06511,-0.32315 -0.06511,-0.137459 -0.197748,-0.224276 -0.115755,-0.07476 -0.265273,-0.106109 -0.147105,-0.03376 -0.373792,-0.03376 H 89.74629 v 1.434883 h 0.402732 q 0.289388,0 0.470256,-0.05064 0.180867,-0.05305 0.294211,-0.166398 0.113343,-0.115756 0.159163,-0.243569 0.04823,-0.127813 0.04823,-0.286976 z" />
        <path
           inkscape:connector-curvature="0"
           id="path9764"
           style="font-size:4.93888903px;stroke-width:0.26458332"
           d="m 94.465724,15.483304 h -0.453375 v -1.533757 q 0,-0.18569 -0.0217,-0.347265 -0.0217,-0.163987 -0.07958,-0.255626 -0.06029,-0.101286 -0.173632,-0.149517 -0.113344,-0.05064 -0.294212,-0.05064 -0.18569,0 -0.388262,0.09164 -0.202571,0.09164 -0.388262,0.233922 v 2.011247 H 92.21332 V 11.73091 h 0.453375 v 1.357712 q 0.212218,-0.176044 0.438905,-0.274919 0.226687,-0.09887 0.465432,-0.09887 0.436494,0 0.665593,0.262861 0.229099,0.262861 0.229099,0.757232 z" />
        <path
           inkscape:connector-curvature="0"
           id="path9766"
           style="font-size:4.93888903px;stroke-width:0.26458332"
           d="m 97.593526,14.183469 h -1.984719 q 0,0.248392 0.07476,0.434083 0.07476,0.183279 0.204984,0.301445 0.125401,0.115756 0.296622,0.173633 0.173633,0.05788 0.381028,0.05788 0.274919,0 0.552249,-0.108521 0.279741,-0.110932 0.397908,-0.217041 h 0.02412 v 0.494371 q -0.229099,0.09646 -0.467844,0.161575 -0.238745,0.06511 -0.501606,0.06511 -0.670416,0 -1.04662,-0.361735 -0.376204,-0.364147 -0.376204,-1.032151 0,-0.660769 0.359323,-1.049032 0.361735,-0.388262 0.950157,-0.388262 0.545014,0 0.839226,0.318327 0.296622,0.318327 0.296622,0.904338 z M 97.15221,13.836204 q -0.0024,-0.356912 -0.180868,-0.552249 -0.176044,-0.195337 -0.537779,-0.195337 -0.364147,0 -0.581188,0.21463 -0.214629,0.214629 -0.243568,0.532956 z" />
        <path
           inkscape:connector-curvature="0"
           id="path9768"
           style="font-size:4.93888903px;stroke-width:0.26458332"
           d="m 100.53323,15.483304 h -0.45338 v -1.533757 q 0,-0.18569 -0.0217,-0.347265 -0.0217,-0.163987 -0.07958,-0.255626 -0.06029,-0.101286 -0.173632,-0.149517 -0.113344,-0.05064 -0.294212,-0.05064 -0.18569,0 -0.388262,0.09164 -0.202571,0.09164 -0.388262,0.233922 v 2.011247 h -0.453375 v -2.69372 h 0.453375 v 0.299034 q 0.212218,-0.176044 0.438905,-0.274919 0.226687,-0.09887 0.465433,-0.09887 0.4365,0 0.6656,0.262861 0.2291,0.262861 0.2291,0.757232 z" />
        <path
           inkscape:connector-curvature="0"
           id="path9770"
           style="font-size:4.93888903px;stroke-width:0.26458332"
           d="m 103.70203,14.13765 q 0,0.658357 -0.33762,1.039385 -0.33762,0.381028 -0.90434,0.381028 -0.57154,0 -0.90916,-0.381028 -0.33521,-0.381028 -0.33521,-1.039385 0,-0.658358 0.33521,-1.039386 0.33762,-0.383439 0.90916,-0.383439 0.56672,0 0.90434,0.383439 0.33762,0.381028 0.33762,1.039386 z m -0.46785,0 q 0,-0.52331 -0.20498,-0.776525 -0.20499,-0.255626 -0.56913,-0.255626 -0.36897,0 -0.57395,0.255626 -0.20258,0.253215 -0.20258,0.776525 0,0.506429 0.20499,0.76929 0.20498,0.260449 0.57154,0.260449 0.36173,0 0.56672,-0.258038 0.20739,-0.260449 0.20739,-0.771701 z" />
        <path
           inkscape:connector-curvature="0"
           id="path9772"
           style="font-size:4.93888903px;stroke-width:0.26458332"
           d="m 108.33706,15.483304 h -0.45338 v -1.533757 q 0,-0.173632 -0.0169,-0.335207 -0.0145,-0.161575 -0.0651,-0.258038 -0.0555,-0.103697 -0.15916,-0.156752 -0.1037,-0.05305 -0.29904,-0.05305 -0.19051,0 -0.38103,0.09646 -0.19051,0.09405 -0.38102,0.241157 0.007,0.05547 0.0121,0.130225 0.005,0.07235 0.005,0.144694 v 1.72427 h -0.45338 v -1.533757 q 0,-0.178455 -0.0169,-0.337619 -0.0145,-0.161575 -0.0651,-0.258038 -0.0555,-0.103697 -0.15916,-0.15434 -0.1037,-0.05305 -0.29904,-0.05305 -0.18569,0 -0.37379,0.09164 -0.18569,0.09164 -0.37138,0.233922 v 2.011247 h -0.45338 v -2.69372 h 0.45338 v 0.299034 q 0.21222,-0.176044 0.42202,-0.274919 0.21222,-0.09887 0.45096,-0.09887 0.27492,0 0.46544,0.115755 0.19292,0.115756 0.28697,0.320739 0.27492,-0.231511 0.50161,-0.332796 0.22669,-0.103698 0.48472,-0.103698 0.44373,0 0.65354,0.270096 0.21222,0.267684 0.21222,0.749997 z" />
        <path
           inkscape:connector-curvature="0"
           id="path9774"
           style="font-size:4.93888903px;stroke-width:0.26458332"
           d="m 111.46486,14.183469 h -1.98472 q 0,0.248392 0.0748,0.434083 0.0748,0.183279 0.20498,0.301445 0.1254,0.115756 0.29662,0.173633 0.17364,0.05788 0.38103,0.05788 0.27492,0 0.55225,-0.108521 0.27974,-0.110932 0.39791,-0.217041 h 0.0241 v 0.494371 q -0.2291,0.09646 -0.46785,0.161575 -0.23874,0.06511 -0.5016,0.06511 -0.67042,0 -1.04662,-0.361735 -0.37621,-0.364147 -0.37621,-1.032151 0,-0.660769 0.35932,-1.049032 0.36174,-0.388262 0.95016,-0.388262 0.54502,0 0.83923,0.318327 0.29662,0.318327 0.29662,0.904338 z m -0.44132,-0.347265 q -0.002,-0.356912 -0.18086,-0.552249 -0.17605,-0.195337 -0.53778,-0.195337 -0.36415,0 -0.58119,0.21463 -0.21463,0.214629 -0.24357,0.532956 z" />
        <path
           inkscape:connector-curvature="0"
           id="path9776"
           style="font-size:4.93888903px;stroke-width:0.26458332"
           d="m 114.40456,15.483304 h -0.45337 v -1.533757 q 0,-0.18569 -0.0217,-0.347265 -0.0217,-0.163987 -0.0796,-0.255626 -0.0603,-0.101286 -0.17363,-0.149517 -0.11335,-0.05064 -0.29421,-0.05064 -0.1857,0 -0.38827,0.09164 -0.20257,0.09164 -0.38826,0.233922 v 2.011247 h -0.45337 v -2.69372 h 0.45337 v 0.299034 q 0.21222,-0.176044 0.43891,-0.274919 0.22668,-0.09887 0.46543,-0.09887 0.43649,0 0.66559,0.262861 0.2291,0.262861 0.2291,0.757232 z" />
        <path
           inkscape:connector-curvature="0"
           id="path9778"
           style="font-size:4.93888903px;stroke-width:0.26458332"
           d="m 117.37079,15.483304 h -0.45097 v -0.286976 q -0.0603,0.041 -0.16398,0.115755 -0.10129,0.07235 -0.19775,0.115755 -0.11335,0.05547 -0.26045,0.09164 -0.14711,0.03859 -0.34486,0.03859 -0.36414,0 -0.61736,-0.241157 -0.25321,-0.241157 -0.25321,-0.61495 0,-0.306269 0.13022,-0.494371 0.13264,-0.190514 0.37621,-0.299034 0.24598,-0.108521 0.59083,-0.147106 0.34486,-0.03858 0.74035,-0.05788 v -0.06994 q 0,-0.15434 -0.0555,-0.255626 -0.0531,-0.101286 -0.15434,-0.159163 -0.0965,-0.05547 -0.23151,-0.07476 -0.13505,-0.01929 -0.28216,-0.01929 -0.17845,0 -0.39791,0.04823 -0.21945,0.04582 -0.45337,0.135048 h -0.0241 v -0.46061 q 0.13264,-0.03617 0.38344,-0.07958 0.25081,-0.04341 0.49437,-0.04341 0.28457,0 0.49438,0.04823 0.21221,0.04582 0.36655,0.159163 0.15193,0.110932 0.23151,0.286977 0.0796,0.176044 0.0796,0.436493 z m -0.45097,-0.663181 v -0.749997 q -0.20739,0.01206 -0.48955,0.03617 -0.27974,0.02412 -0.44372,0.06994 -0.19534,0.05547 -0.31592,0.173633 -0.12058,0.115755 -0.12058,0.320738 0,0.23151 0.13987,0.349677 0.13987,0.115755 0.42685,0.115755 0.23875,0 0.43649,-0.09164 0.19775,-0.09405 0.36656,-0.224276 z" />
      </g>
    </g>
    <text
       id="text13359"
       y="130.29749"
       x="91.611977"
       style="font-style:normal;font-weight:normal;font-size:4.93888903px;line-height:1.25;font-family:sans-serif;letter-spacing:0px;word-spacing:0px;fill:#000000;fill-opacity:1;stroke:none;stroke-width:0.26458332"
       xml:space="preserve"><tspan
         style="font-size:4.93888903px;stroke-width:0.26458332"
         y="134.80338"
         x="91.611977"
         id="tspan13357"
         sodipodi:role="line" /></text>
    <g
       id="g56247">
      <path
         inkscape:connector-curvature="0"
         id="path1842"
         d="m 89.584355,72.423544 v 13.75833 0"
         style="display:inline;fill:none;stroke:#000000;stroke-width:0.5;stroke-linecap:butt;stroke-linejoin:miter;stroke-miterlimit:4;stroke-dasharray:none;stroke-opacity:1;marker-start:url(#marker2663)" />
      <path
         style="display:inline;fill:none;stroke:#000000;stroke-width:0.5;stroke-linecap:butt;stroke-linejoin:miter;stroke-miterlimit:4;stroke-dasharray:none;stroke-opacity:1;marker-start:url(#marker2599)"
         d="m 101.32082,72.236455 v 13.75833 0"
         id="path1844"
         inkscape:connector-curvature="0" />
      <path
         inkscape:connector-curvature="0"
         id="path1846"
         d="m 113.05728,72.236455 v 13.75833 0"
         style="display:inline;fill:none;stroke:#000000;stroke-width:0.5;stroke-linecap:butt;stroke-linejoin:miter;stroke-miterlimit:4;stroke-dasharray:none;stroke-opacity:1;marker-start:url(#marker2727)" />
      <g
         transform="matrix(0.00702641,0,0,0.00702641,86.754525,66.193103)"
         id="g13762"
         style="color:#5d5d5d;font-size:x-large;display:inline">
        <g
           style="fill:currentColor;stroke:currentColor;stroke-width:0"
           transform="scale(1,-1)"
           aria-hidden="true"
           id="g13749">
          <use
             height="100%"
             width="100%"
             xlink:href="#E1-MJMATHI-3B8"
             x="0"
             y="0"
             id="use13745" />
          <use
             height="100%"
             width="100%"
             transform="scale(0.707)"
             xlink:href="#E1-MJMAIN-31"
             x="663"
             y="-213"
             id="use13747" />
        </g>
      </g>
      <g
         transform="matrix(0.00702643,0,0,0.00702643,98.436337,66.193111)"
         id="g13803"
         style="color:#5d5d5d;font-size:x-large;display:inline">
        <g
           style="fill:currentColor;stroke:currentColor;stroke-width:0"
           transform="scale(1,-1)"
           aria-hidden="true"
           id="g13790">
          <use
             height="100%"
             width="100%"
             xlink:href="#E1-MJMATHI-3B8-7"
             x="0"
             y="0"
             id="use13786" />
          <use
             height="100%"
             width="100%"
             transform="scale(0.707)"
             xlink:href="#E1-MJMAIN-32"
             x="663"
             y="-213"
             id="use13788" />
        </g>
      </g>
      <g
         transform="matrix(0.00702641,0,0,0.00702641,110.15294,66.138459)"
         id="g13844"
         style="color:#5d5d5d;font-size:x-large;display:inline">
        <g
           style="fill:currentColor;stroke:currentColor;stroke-width:0"
           transform="scale(1,-1)"
           aria-hidden="true"
           id="g13831">
          <use
             height="100%"
             width="100%"
             xlink:href="#E1-MJMATHI-3B8-0"
             x="0"
             y="0"
             id="use13827" />
          <use
             height="100%"
             width="100%"
             transform="scale(0.707)"
             xlink:href="#E1-MJMAIN-33"
             x="663"
             y="-213"
             id="use13829" />
        </g>
      </g>
      <g
         transform="translate(-4.3575508,93.369191)"
         id="text13721"
         style="font-style:normal;font-weight:normal;font-size:4.93888855px;line-height:1.25;font-family:sans-serif;letter-spacing:0px;word-spacing:0px;fill:#000000;fill-opacity:1;stroke:none;stroke-width:0.07000434"
         aria-label="Model">
        <path
           inkscape:connector-curvature="0"
           id="path14110"
           style="stroke-width:0.07000434"
           d="m 100.51754,9.9275217 h -0.47749 v -3.09404 L 99.041666,8.9387794 H 98.757101 L 97.765947,6.8334817 v 3.09404 h -0.44614 V 6.3366989 h 0.651123 l 0.957392,1.9991888 0.926042,-1.9991888 h 0.663176 z" />
        <path
           inkscape:connector-curvature="0"
           id="path14112"
           style="stroke-width:0.07000434"
           d="m 103.74663,8.5818675 q 0,0.6583577 -0.33762,1.0393852 -0.33762,0.3810273 -0.90433,0.3810273 -0.57155,0 -0.90917,-0.3810273 -0.3352,-0.3810275 -0.3352,-1.0393852 0,-0.6583577 0.3352,-1.0393852 0.33762,-0.3834391 0.90917,-0.3834391 0.56671,0 0.90433,0.3834391 0.33762,0.3810275 0.33762,1.0393852 z m -0.46784,0 q 0,-0.52331 -0.20498,-0.7765245 -0.20499,-0.255626 -0.56913,-0.255626 -0.36897,0 -0.57396,0.255626 -0.20257,0.2532145 -0.20257,0.7765245 0,0.506429 0.20498,0.7692898 0.20499,0.2604492 0.57155,0.2604492 0.36173,0 0.56671,-0.2580377 0.2074,-0.2604492 0.2074,-0.7717013 z" />
        <path
           inkscape:connector-curvature="0"
           id="path14114"
           style="stroke-width:0.07000434"
           d="m 106.63569,9.9275217 h -0.45338 V 9.6453684 q -0.19533,0.1688097 -0.40755,0.2628608 -0.21222,0.094051 -0.46061,0.094051 -0.48231,0 -0.76688,-0.371378 -0.28215,-0.3713813 -0.28215,-1.029739 0,-0.3424424 0.0965,-0.6101263 0.0989,-0.2676839 0.26527,-0.4557861 0.16399,-0.1832791 0.38103,-0.2797418 0.21945,-0.096463 0.45338,-0.096463 0.21221,0 0.3762,0.04582 0.16399,0.043408 0.34485,0.1374593 V 6.175124 h 0.45338 z M 106.18231,9.2643409 V 7.7185266 q -0.18327,-0.081993 -0.32797,-0.1133436 -0.14469,-0.03135 -0.31591,-0.03135 -0.38103,0 -0.59325,0.2652724 -0.21222,0.2652723 -0.21222,0.7524088 0,0.4799017 0.16399,0.7307047 0.16399,0.2483913 0.52572,0.2483913 0.19293,0 0.39068,-0.084405 0.19774,-0.086816 0.36896,-0.2218643 z" />
        <path
           inkscape:connector-curvature="0"
           id="path14116"
           style="stroke-width:0.07000434"
           d="m 109.78278,8.6276873 h -1.98472 q 0,0.2483913 0.0748,0.434082 0.0748,0.183279 0.20499,0.3014458 0.1254,0.1157552 0.29662,0.1736328 0.17363,0.057878 0.38103,0.057878 0.27491,0 0.55225,-0.1085205 0.27974,-0.1109321 0.3979,-0.217041 h 0.0241 v 0.4943712 q -0.2291,0.096463 -0.46784,0.1615749 -0.23875,0.065112 -0.50161,0.065112 -0.67042,0 -1.04662,-0.361735 -0.3762,-0.3641465 -0.3762,-1.0321505 0,-0.6607693 0.35932,-1.0490315 0.36173,-0.3882622 0.95016,-0.3882622 0.54501,0 0.83922,0.3183268 0.29662,0.3183268 0.29662,0.9043375 z m -0.44131,-0.3472656 q -0.002,-0.3569119 -0.18087,-0.5522488 -0.17604,-0.1953369 -0.53778,-0.1953369 -0.36415,0 -0.58119,0.2146294 -0.21463,0.2146295 -0.24357,0.5329563 z" />
        <path
           inkscape:connector-curvature="0"
           id="path14118"
           style="stroke-width:0.07000434"
           d="M 110.92828,9.9275217 H 110.4749 V 6.175124 h 0.45338 z" />
      </g>
      <rect
         id="rect13397"
         width="72.760414"
         height="30.691668"
         x="65.060043"
         y="86.112061"
         style="fill:#000000;fill-opacity:0;stroke:#000000;stroke-width:0.5;stroke-miterlimit:4;stroke-dasharray:none;stroke-opacity:1" />
      <path
         style="fill:none;stroke:#000000;stroke-width:0.5;stroke-linecap:butt;stroke-linejoin:miter;stroke-miterlimit:4;stroke-dasharray:none;stroke-opacity:1;marker-start:url(#marker14879)"
         d="m 33.963086,101.45789 h 30.956251 v 0 0"
         id="path13399"
         inkscape:connector-curvature="0" />
      <path
         inkscape:connector-curvature="0"
         id="path13401"
         d="m 137.64951,101.45789 h 30.95625 v 0 0"
         style="fill:none;stroke:#000000;stroke-width:0.5;stroke-linecap:butt;stroke-linejoin:miter;stroke-miterlimit:4;stroke-dasharray:none;stroke-opacity:1;marker-end:url(#marker1363-0-3)" />
      <g
         style="color:#5d5d5d;font-size:x-large"
         id="g13407"
         transform="matrix(0.00702734,0,0,0.00702734,29.901976,96.348254)">
        <g
           id="g13405"
           aria-hidden="true"
           transform="scale(1,-1)"
           style="fill:currentColor;stroke:currentColor;stroke-width:0">
          <use
             id="use13403"
             y="0"
             x="0"
             xlink:href="#E1-MJMATHI-78-7-0"
             width="100%"
             height="100%" />
        </g>
      </g>
      <g
         transform="matrix(0.00648485,0,0,0.0066896,165.81879,96.54039)"
         id="g56214"
         style="color:#5d5d5d;font-size:x-large;stroke-width:40.1709938">
        <g
           style="fill:currentColor;stroke:currentColor;stroke-width:0"
           transform="scale(1,-1)"
           aria-hidden="true"
           id="g56201">
          <use
             style="stroke-width:0"
             height="100%"
             width="100%"
             xlink:href="#E1-MJMATHI-79-0"
             x="1"
             y="0"
             id="use56197" />
          <use
             style="stroke-width:0"
             height="100%"
             width="100%"
             xlink:href="#E1-MJMAIN-5E"
             x="60"
             y="21"
             id="use56199" />
        </g>
      </g>
    </g>
  </g>
</svg>
