<?xml version="1.0" encoding="UTF-8" standalone="no"?>
<!-- Created with Inkscape (http://www.inkscape.org/) -->

<svg
   xmlns:dc="http://purl.org/dc/elements/1.1/"
   xmlns:cc="http://creativecommons.org/ns#"
   xmlns:rdf="http://www.w3.org/1999/02/22-rdf-syntax-ns#"
   xmlns:svg="http://www.w3.org/2000/svg"
   xmlns="http://www.w3.org/2000/svg"
   xmlns:xlink="http://www.w3.org/1999/xlink"
   xmlns:sodipodi="http://sodipodi.sourceforge.net/DTD/sodipodi-0.dtd"
   xmlns:inkscape="http://www.inkscape.org/namespaces/inkscape"
   width="160.11914mm"
   height="38.301632mm"
   viewBox="0 0 160.11914 38.301632"
   version="1.1"
   id="svg2861"
   inkscape:version="0.92.2 (5c3e80d, 2017-08-06)"
   sodipodi:docname="Model_Coin_1.svg">
  <defs
     id="defs2855">
    <marker
       inkscape:stockid="EmptyTriangleOutL"
       orient="auto"
       refY="0"
       refX="0"
       id="marker1363"
       style="overflow:visible"
       inkscape:isstock="true">
      <path
         id="path1361"
         d="M 5.77,0 -2.88,5 V -5 Z"
         style="fill:#ffffff;fill-rule:evenodd;stroke:#000000;stroke-width:1.00000003pt;stroke-opacity:1"
         transform="matrix(0.8,0,0,0.8,-4.8,0)"
         inkscape:connector-curvature="0" />
    </marker>
    <marker
       inkscape:stockid="EmptyTriangleOutL"
       orient="auto"
       refY="0"
       refX="0"
       id="EmptyTriangleOutL"
       style="overflow:visible"
       inkscape:isstock="true"
       inkscape:collect="always">
      <path
         id="path979"
         d="M 5.77,0 -2.88,5 V -5 Z"
         style="fill:#ffffff;fill-rule:evenodd;stroke:#000000;stroke-width:1.00000003pt;stroke-opacity:1"
         transform="matrix(0.8,0,0,0.8,-4.8,0)"
         inkscape:connector-curvature="0" />
    </marker>
    <path
       d="m 52,289 q 7,42 54,97 47,55 116,56 35,0 64,-18 29,-18 43,-45 42,63 101,63 37,0 64,-22 27,-22 28,-59 0,-29 -14,-47 -14,-18 -27,-22 -13,-4 -23,-4 -19,0 -31,11 -12,11 -12,29 0,46 50,63 -11,13 -40,13 -13,0 -19,-2 -38,-16 -56,-66 -60,-221 -60,-258 0,-28 16,-40 16,-12 35,-12 37,0 73,33 36,33 49,81 3,10 6,11 3,1 16,2 h 4 q 15,0 15,-8 0,-1 -2,-11 Q 486,77 440,33 394,-11 333,-11 263,-11 227,52 186,-10 133,-10 h -6 q -49,0 -70,26 -21,26 -22,55 0,32 19,52 19,20 45,20 43,0 43,-42 Q 142,81 130,66 118,51 107,46 96,41 94,41 l -3,-1 q 0,-1 6,-4 6,-3 16,-7 10,-4 19,-3 36,0 62,45 9,16 23,68 14,52 28,108 14,56 16,66 5,27 5,39 0,28 -15,40 -15,12 -34,12 -40,0 -75,-32 -35,-32 -49,-82 -2,-9 -5,-10 -3,-1 -16,-2 H 58 q -6,6 -6,11 z"
       id="E1-MJMATHI-78"
       inkscape:connector-curvature="0"
       style="stroke-width:1" />
    <path
       d="m 52,289 q 7,42 54,97 47,55 116,56 35,0 64,-18 29,-18 43,-45 42,63 101,63 37,0 64,-22 27,-22 28,-59 0,-29 -14,-47 -14,-18 -27,-22 -13,-4 -23,-4 -19,0 -31,11 -12,11 -12,29 0,46 50,63 -11,13 -40,13 -13,0 -19,-2 -38,-16 -56,-66 -60,-221 -60,-258 0,-28 16,-40 16,-12 35,-12 37,0 73,33 36,33 49,81 3,10 6,11 3,1 16,2 h 4 q 15,0 15,-8 0,-1 -2,-11 Q 486,77 440,33 394,-11 333,-11 263,-11 227,52 186,-10 133,-10 h -6 q -49,0 -70,26 -21,26 -22,55 0,32 19,52 19,20 45,20 43,0 43,-42 Q 142,81 130,66 118,51 107,46 96,41 94,41 l -3,-1 q 0,-1 6,-4 6,-3 16,-7 10,-4 19,-3 36,0 62,45 9,16 23,68 14,52 28,108 14,56 16,66 5,27 5,39 0,28 -15,40 -15,12 -34,12 -40,0 -75,-32 -35,-32 -49,-82 -2,-9 -5,-10 -3,-1 -16,-2 H 58 q -6,6 -6,11 z"
       id="E1-MJMATHI-78-2"
       inkscape:connector-curvature="0"
       style="stroke-width:1" />
    <path
       d="m 21,287 q 0,14 15,48 15,34 48,71 33,37 74,36 41,0 66,-23 25,-23 26,-64 -2,-19 -3,-21 0,-3 -16,-46 -16,-43 -33,-97 -17,-54 -16,-86 0,-43 14,-60 14,-17 42,-18 23,0 43,11 20,11 31,23 11,12 27,33 0,1 5,20 5,19 14,59 9,40 19,74 38,150 42,157 13,27 43,27 13,0 21,-7 8,-7 11,-12 3,-5 2,-9 0,-13 -49,-210 -49,-197 -56,-216 -28,-83 -97,-132 -69,-49 -138,-50 -45,0 -79,22 -34,22 -34,66 0,22 7,37 7,15 19,22 12,7 20,10 8,3 17,3 44,0 44,-42 0,-20 -12,-35 -12,-15 -23,-20 -11,-5 -13,-5 l -3,-1 q 2,-5 19,-12 17,-7 34,-7 h 8 q 17,0 26,2 33,9 61,38 28,29 43,62 15,33 23,56 8,23 8,30 l -6,-4 q -6,-4 -19,-11 -13,-7 -26,-12 -20,-5 -39,-5 -46,0 -81,22 -35,22 -46,71 -1,7 -1,31 0,57 35,149 35,92 35,117 0,1 0,2 0,9 0,12 0,3 -4,7 -4,4 -11,4 h -4 Q 131,404 112,385 93,366 82,344 71,322 65,302 59,282 57,280 55,278 41,278 H 27 q -6,6 -6,9 z"
       id="E1-MJMATHI-79"
       inkscape:connector-curvature="0"
       style="stroke-width:1" />
  </defs>
  <sodipodi:namedview
     id="base"
     pagecolor="#ffffff"
     bordercolor="#666666"
     borderopacity="1.0"
     inkscape:pageopacity="0.0"
     inkscape:pageshadow="2"
     inkscape:zoom="2"
     inkscape:cx="259.69898"
     inkscape:cy="63.435768"
     inkscape:document-units="mm"
     inkscape:current-layer="layer1"
     showgrid="false"
     inkscape:window-width="1920"
     inkscape:window-height="1017"
     inkscape:window-x="-8"
     inkscape:window-y="-8"
     inkscape:window-maximized="1" />
  <metadata
     id="metadata2858">
    <rdf:RDF>
      <cc:Work
         rdf:about="">
        <dc:format>image/svg+xml</dc:format>
        <dc:type
           rdf:resource="http://purl.org/dc/dcmitype/StillImage" />
        <dc:title></dc:title>
      </cc:Work>
    </rdf:RDF>
  </metadata>
  <g
     inkscape:label="Layer 1"
     inkscape:groupmode="layer"
     id="layer1"
     transform="translate(-23.463671,-15.002535)">
    <rect
       id="rect10"
       width="72.760414"
       height="30.691668"
       x="66.979828"
       y="22.362499"
       style="fill:#000000;fill-opacity:0;stroke:#000000;stroke-width:0.5;stroke-miterlimit:4;stroke-dasharray:none;stroke-opacity:1" />
    <path
       style="fill:none;stroke:#000000;stroke-width:0.5;stroke-linecap:butt;stroke-linejoin:miter;stroke-miterlimit:4;stroke-dasharray:none;stroke-opacity:1;marker-start:url(#EmptyTriangleOutL)"
       d="m 36.023586,37.708333 h 30.956251 v 0 0"
       id="path817"
       inkscape:connector-curvature="0" />
    <path
       inkscape:connector-curvature="0"
       id="path1133"
       d="m 139.74026,37.708333 h 30.95625 v 0 0"
       style="fill:none;stroke:#000000;stroke-width:0.5;stroke-linecap:butt;stroke-linejoin:miter;stroke-miterlimit:4;stroke-dasharray:none;stroke-opacity:1;marker-end:url(#marker1363)" />
    <g
       aria-label="number of times
we toss the coin"
       style="font-style:normal;font-weight:normal;font-size:4.93888855px;line-height:1.25;font-family:sans-serif;letter-spacing:0px;word-spacing:0px;fill:#000000;fill-opacity:1;stroke:none;stroke-width:0.26458332"
       id="text2937"
       transform="translate(1.8520732)">
      <path
         d="m 23.863999,25.412712 h -0.453375 v -1.533756 q 0,-0.185691 -0.0217,-0.347266 -0.0217,-0.163986 -0.07958,-0.255626 -0.06029,-0.101286 -0.173632,-0.149517 -0.113344,-0.05064 -0.294212,-0.05064 -0.18569,0 -0.388262,0.09164 -0.202571,0.09164 -0.388262,0.233921 v 2.011247 h -0.453375 v -2.69372 h 0.453375 v 0.299034 q 0.212218,-0.176044 0.438905,-0.274918 0.226687,-0.09887 0.465432,-0.09887 0.436494,0 0.665593,0.26286 0.229099,0.262861 0.229099,0.757232 z"
         style="text-align:center;text-anchor:middle;fill:#5d5d5d;fill-opacity:1;stroke-width:0.26458332"
         id="path7824"
         inkscape:connector-curvature="0" />
      <path
         d="m 26.970097,25.412712 h -0.453375 v -0.299034 q -0.229099,0.180867 -0.438905,0.27733 -0.209806,0.09646 -0.463021,0.09646 -0.424436,0 -0.660769,-0.258038 -0.236334,-0.260449 -0.236334,-0.762055 v -1.748386 h 0.453375 v 1.533757 q 0,0.204983 0.01929,0.352088 0.01929,0.144694 0.08199,0.248392 0.06511,0.106109 0.168809,0.15434 0.103698,0.04823 0.301446,0.04823 0.176045,0 0.383439,-0.09164 0.209807,-0.09164 0.390674,-0.233922 v -2.011247 h 0.453375 z"
         style="text-align:center;text-anchor:middle;fill:#5d5d5d;fill-opacity:1;stroke-width:0.26458332"
         id="path7826"
         inkscape:connector-curvature="0" />
      <path
         d="m 31.79323,25.412712 h -0.453374 v -1.533756 q 0,-0.173633 -0.01688,-0.335208 -0.01447,-0.161575 -0.06511,-0.258038 -0.05547,-0.103697 -0.159163,-0.156752 -0.103697,-0.05305 -0.299034,-0.05305 -0.190514,0 -0.381028,0.09646 -0.190514,0.09405 -0.381027,0.241156 0.0072,0.05547 0.01206,0.130225 0.0048,0.07235 0.0048,0.144694 v 1.72427 h -0.453375 v -1.533756 q 0,-0.178456 -0.01688,-0.33762 -0.01447,-0.161575 -0.06511,-0.258037 -0.05547,-0.103698 -0.159164,-0.154341 -0.103697,-0.05305 -0.299034,-0.05305 -0.185691,0 -0.373793,0.09164 -0.18569,0.09164 -0.371381,0.233921 v 2.011247 h -0.453375 v -2.69372 h 0.453375 v 0.299034 q 0.212218,-0.176044 0.422024,-0.274918 0.212218,-0.09887 0.450963,-0.09887 0.274919,0 0.465433,0.115755 0.192925,0.115755 0.286976,0.320738 0.274919,-0.23151 0.501606,-0.332796 0.226687,-0.103697 0.484725,-0.103697 0.443728,0 0.653534,0.270095 0.212218,0.267684 0.212218,0.749997 z"
         style="text-align:center;text-anchor:middle;fill:#5d5d5d;fill-opacity:1;stroke-width:0.26458332"
         id="path7828"
         inkscape:connector-curvature="0" />
      <path
         d="m 35.036787,24.045354 q 0,0.337619 -0.09646,0.607715 -0.09405,0.270095 -0.255627,0.453374 -0.171221,0.190514 -0.376204,0.286977 -0.204983,0.09405 -0.450963,0.09405 -0.229099,0 -0.40032,-0.05547 -0.171221,-0.05306 -0.337619,-0.144694 l -0.02894,0.125401 h -0.424436 v -3.752398 h 0.453375 v 1.340831 q 0.190513,-0.156751 0.405143,-0.255626 0.214629,-0.101285 0.482313,-0.101285 0.47749,0 0.752409,0.366558 0.27733,0.366558 0.27733,1.034562 z m -0.467844,0.01206 q 0,-0.482314 -0.159163,-0.730705 -0.159164,-0.250803 -0.513664,-0.250803 -0.197748,0 -0.40032,0.08682 -0.202572,0.08441 -0.376204,0.219453 v 1.543403 q 0.192925,0.08682 0.330384,0.120578 0.139871,0.03376 0.315916,0.03376 0.376204,0 0.588422,-0.24598 0.214629,-0.248391 0.214629,-0.776524 z"
         style="text-align:center;text-anchor:middle;fill:#5d5d5d;fill-opacity:1;stroke-width:0.26458332"
         id="path7830"
         inkscape:connector-curvature="0" />
      <path
         d="m 37.998191,24.112878 h -1.984719 q 0,0.248391 0.07476,0.434082 0.07476,0.183279 0.204983,0.301445 0.125402,0.115756 0.296623,0.173633 0.173633,0.05788 0.381027,0.05788 0.274919,0 0.552249,-0.108521 0.279742,-0.110932 0.397909,-0.217041 h 0.02411 v 0.494372 q -0.229098,0.09646 -0.467844,0.161575 -0.238745,0.06511 -0.501605,0.06511 -0.670416,0 -1.04662,-0.361735 -0.376205,-0.364147 -0.376205,-1.032151 0,-0.660769 0.359324,-1.049031 0.361735,-0.388262 0.950157,-0.388262 0.545014,0 0.839225,0.318326 0.296623,0.318327 0.296623,0.904338 z m -0.441317,-0.347266 q -0.0024,-0.356912 -0.180867,-0.552249 -0.176045,-0.195337 -0.53778,-0.195337 -0.364146,0 -0.581187,0.21463 -0.21463,0.214629 -0.243568,0.532956 z"
         style="text-align:center;text-anchor:middle;fill:#5d5d5d;fill-opacity:1;stroke-width:0.26458332"
         id="path7832"
         inkscape:connector-curvature="0" />
      <path
         d="m 40.36635,23.213363 h -0.02412 q -0.101285,-0.02412 -0.197748,-0.03376 -0.09405,-0.01206 -0.224276,-0.01206 -0.209806,0 -0.405143,0.09405 -0.195337,0.09164 -0.376204,0.238745 v 1.912372 h -0.453375 v -2.69372 h 0.453375 v 0.397909 q 0.270095,-0.217041 0.475078,-0.306269 0.207395,-0.09164 0.422024,-0.09164 0.118167,0 0.171222,0.0072 0.05305,0.0048 0.159163,0.0217 z"
         style="text-align:center;text-anchor:middle;fill:#5d5d5d;fill-opacity:1;stroke-width:0.26458332"
         id="path7834"
         inkscape:connector-curvature="0" />
      <path
         d="m 44.830159,24.067058 q 0,0.658358 -0.337619,1.039385 -0.337619,0.381028 -0.904338,0.381028 -0.571541,0 -0.90916,-0.381028 -0.335208,-0.381027 -0.335208,-1.039385 0,-0.658358 0.335208,-1.039385 0.337619,-0.383439 0.90916,-0.383439 0.566719,0 0.904338,0.383439 0.337619,0.381027 0.337619,1.039385 z m -0.467844,0 q 0,-0.52331 -0.204983,-0.776525 -0.204983,-0.255626 -0.56913,-0.255626 -0.368969,0 -0.573952,0.255626 -0.202572,0.253215 -0.202572,0.776525 0,0.506429 0.204983,0.76929 0.204983,0.260449 0.571541,0.260449 0.361735,0 0.566719,-0.258038 0.207394,-0.260449 0.207394,-0.771701 z"
         style="text-align:center;text-anchor:middle;fill:#5d5d5d;fill-opacity:1;stroke-width:0.26458332"
         id="path7836"
         inkscape:connector-curvature="0" />
      <path
         d="m 46.983688,22.099219 h -0.02412 q -0.07476,-0.0217 -0.195337,-0.04341 -0.120578,-0.02411 -0.212217,-0.02411 -0.2918,0 -0.424436,0.130224 -0.130225,0.127813 -0.130225,0.465433 v 0.09164 h 0.817521 v 0.381028 h -0.803051 v 2.312692 H 45.558452 V 23.10002 h -0.306269 v -0.381028 h 0.306269 v -0.08923 q 0,-0.479902 0.238745,-0.735528 0.238745,-0.258037 0.689708,-0.258037 0.151929,0 0.272507,0.01447 0.12299,0.01447 0.224276,0.03376 z"
         style="text-align:center;text-anchor:middle;fill:#5d5d5d;fill-opacity:1;stroke-width:0.26458332"
         id="path7838"
         inkscape:connector-curvature="0" />
      <path
         d="m 50.405701,25.388596 q -0.127813,0.03376 -0.279741,0.05547 -0.149518,0.02171 -0.267684,0.02171 -0.412378,0 -0.627008,-0.221865 -0.214629,-0.221864 -0.214629,-0.711412 V 23.10002 H 48.71037 v -0.381028 h 0.306269 v -0.774113 h 0.453374 v 0.774113 h 0.935688 v 0.381028 h -0.935688 v 1.227487 q 0,0.212218 0.0096,0.332796 0.0096,0.118167 0.06752,0.221864 0.05305,0.09646 0.144694,0.142283 0.09405,0.04341 0.284564,0.04341 0.110932,0 0.231511,-0.03135 0.120578,-0.03376 0.173633,-0.05547 h 0.02412 z"
         style="text-align:center;text-anchor:middle;fill:#5d5d5d;fill-opacity:1;stroke-width:0.26458332"
         id="path7840"
         inkscape:connector-curvature="0" />
      <path
         d="m 51.442675,22.268029 h -0.511253 v -0.470255 h 0.511253 z m -0.02894,3.144683 H 50.96036 v -2.69372 h 0.453375 z"
         style="text-align:center;text-anchor:middle;fill:#5d5d5d;fill-opacity:1;stroke-width:0.26458332"
         id="path7842"
         inkscape:connector-curvature="0" />
      <path
         d="m 56.246516,25.412712 h -0.453374 v -1.533756 q 0,-0.173633 -0.01688,-0.335208 -0.01447,-0.161575 -0.06511,-0.258038 -0.05547,-0.103697 -0.159164,-0.156752 -0.103697,-0.05305 -0.299034,-0.05305 -0.190514,0 -0.381028,0.09646 -0.190513,0.09405 -0.381027,0.241156 0.0072,0.05547 0.01206,0.130225 0.0048,0.07235 0.0048,0.144694 v 1.72427 h -0.453375 v -1.533756 q 0,-0.178456 -0.01688,-0.33762 -0.01447,-0.161575 -0.06511,-0.258037 -0.05547,-0.103698 -0.159163,-0.154341 -0.103698,-0.05305 -0.299035,-0.05305 -0.18569,0 -0.373793,0.09164 -0.18569,0.09164 -0.371381,0.233921 v 2.011247 h -0.453374 v -2.69372 h 0.453374 v 0.299034 q 0.212218,-0.176044 0.422024,-0.274918 0.212218,-0.09887 0.450963,-0.09887 0.274919,0 0.465433,0.115755 0.192925,0.115755 0.286976,0.320738 0.274919,-0.23151 0.501606,-0.332796 0.226687,-0.103697 0.484725,-0.103697 0.443728,0 0.653534,0.270095 0.212218,0.267684 0.212218,0.749997 z"
         style="text-align:center;text-anchor:middle;fill:#5d5d5d;fill-opacity:1;stroke-width:0.26458332"
         id="path7844"
         inkscape:connector-curvature="0" />
      <path
         d="m 59.374318,24.112878 h -1.984719 q 0,0.248391 0.07476,0.434082 0.07476,0.183279 0.204983,0.301445 0.125402,0.115756 0.296623,0.173633 0.173633,0.05788 0.381028,0.05788 0.274918,0 0.552249,-0.108521 0.279741,-0.110932 0.397908,-0.217041 h 0.02412 v 0.494372 q -0.229099,0.09646 -0.467844,0.161575 -0.238745,0.06511 -0.501606,0.06511 -0.670416,0 -1.04662,-0.361735 -0.376204,-0.364147 -0.376204,-1.032151 0,-0.660769 0.359323,-1.049031 0.361735,-0.388262 0.950157,-0.388262 0.545014,0 0.839225,0.318326 0.296623,0.318327 0.296623,0.904338 z m -0.441317,-0.347266 q -0.0024,-0.356912 -0.180867,-0.552249 -0.176044,-0.195337 -0.537779,-0.195337 -0.364147,0 -0.581188,0.21463 -0.214629,0.214629 -0.243568,0.532956 z"
         style="text-align:center;text-anchor:middle;fill:#5d5d5d;fill-opacity:1;stroke-width:0.26458332"
         id="path7846"
         inkscape:connector-curvature="0" />
      <path
         d="m 61.986045,24.636188 q 0,0.368969 -0.306268,0.605303 -0.303858,0.236333 -0.831991,0.236333 -0.299034,0 -0.549837,-0.06993 -0.248392,-0.07235 -0.417201,-0.156752 v -0.50884 h 0.02412 q 0.21463,0.161575 0.477491,0.258037 0.26286,0.09405 0.504017,0.09405 0.299034,0 0.467844,-0.09646 0.16881,-0.09646 0.16881,-0.303858 0,-0.159163 -0.09164,-0.241156 -0.09164,-0.08199 -0.352089,-0.139871 -0.09646,-0.0217 -0.253214,-0.05064 -0.15434,-0.02894 -0.282153,-0.0627 -0.354501,-0.09405 -0.504018,-0.274919 -0.147105,-0.183279 -0.147105,-0.448551 0,-0.166398 0.06752,-0.313504 0.06994,-0.147105 0.209807,-0.26286 0.135048,-0.113344 0.342442,-0.178456 0.209807,-0.06752 0.467844,-0.06752 0.241157,0 0.487137,0.06029 0.248391,0.05788 0.412378,0.142282 v 0.484725 h -0.02412 q -0.173633,-0.127813 -0.422024,-0.214629 -0.248392,-0.08923 -0.487137,-0.08923 -0.248391,0 -0.419612,0.09646 -0.171222,0.09405 -0.171222,0.282153 0,0.166398 0.103698,0.250803 0.101286,0.08441 0.327973,0.137459 0.125401,0.02894 0.279742,0.05788 0.156751,0.02894 0.260449,0.05305 0.315915,0.07235 0.487136,0.248392 0.171221,0.178455 0.171221,0.472667 z"
         style="text-align:center;text-anchor:middle;fill:#5d5d5d;fill-opacity:1;stroke-width:0.26458332"
         id="path7848"
         inkscape:connector-curvature="0" />
      <path
         d="m 25.32782,28.892603 -0.701766,2.69372 h -0.419613 l -0.692119,-2.076359 -0.687297,2.076359 h -0.417201 l -0.709001,-2.69372 h 0.472667 l 0.494372,2.086005 0.672827,-2.086005 h 0.373793 l 0.689708,2.086005 0.467844,-2.086005 z"
         style="text-align:center;text-anchor:middle;fill:#5d5d5d;fill-opacity:1;stroke-width:0.26458332"
         id="path7850"
         inkscape:connector-curvature="0" />
      <path
         d="M 28.236169,30.286488 H 26.25145 q 0,0.248392 0.07476,0.434082 0.07476,0.183279 0.204983,0.301446 0.125402,0.115755 0.296623,0.173633 0.173633,0.05788 0.381028,0.05788 0.274918,0 0.552248,-0.108521 0.279742,-0.110932 0.397909,-0.217041 h 0.02412 v 0.494371 q -0.229099,0.09646 -0.467844,0.161575 -0.238745,0.06511 -0.501606,0.06511 -0.670416,0 -1.04662,-0.361735 -0.376205,-0.364147 -0.376205,-1.032151 0,-0.660769 0.359324,-1.049032 0.361735,-0.388262 0.950157,-0.388262 0.545014,0 0.839225,0.318327 0.296623,0.318327 0.296623,0.904338 z m -0.441317,-0.347265 q -0.0024,-0.356912 -0.180867,-0.552249 -0.176045,-0.195337 -0.53778,-0.195337 -0.364146,0 -0.581187,0.21463 -0.21463,0.214629 -0.243568,0.532956 z"
         style="text-align:center;text-anchor:middle;fill:#5d5d5d;fill-opacity:1;stroke-width:0.26458332"
         id="path7852"
         inkscape:connector-curvature="0" />
      <path
         d="m 32.058503,31.562207 q -0.127814,0.03376 -0.279742,0.05547 -0.149517,0.0217 -0.267684,0.0217 -0.412378,0 -0.627007,-0.221864 -0.21463,-0.221864 -0.21463,-0.711412 V 29.27363 H 30.363171 V 28.892603 H 30.66944 V 28.11849 h 0.453375 v 0.774113 h 0.935688 v 0.381027 h -0.935688 v 1.227488 q 0,0.212218 0.0096,0.332796 0.0096,0.118167 0.06752,0.221864 0.05305,0.09646 0.144694,0.142283 0.09405,0.04341 0.284565,0.04341 0.110932,0 0.23151,-0.03135 0.120578,-0.03376 0.173633,-0.05547 h 0.02412 z"
         style="text-align:center;text-anchor:middle;fill:#5d5d5d;fill-opacity:1;stroke-width:0.26458332"
         id="path7854"
         inkscape:connector-curvature="0" />
      <path
         d="m 34.904151,30.240669 q 0,0.658357 -0.33762,1.039385 -0.337619,0.381027 -0.904337,0.381027 -0.571541,0 -0.909161,-0.381027 -0.335207,-0.381028 -0.335207,-1.039385 0,-0.658358 0.335207,-1.039386 0.33762,-0.383439 0.909161,-0.383439 0.566718,0 0.904337,0.383439 0.33762,0.381028 0.33762,1.039386 z m -0.467844,0 q 0,-0.52331 -0.204983,-0.776525 -0.204984,-0.255626 -0.56913,-0.255626 -0.36897,0 -0.573953,0.255626 -0.202572,0.253215 -0.202572,0.776525 0,0.506429 0.204984,0.769289 0.204983,0.26045 0.571541,0.26045 0.361735,0 0.566718,-0.258038 0.207395,-0.260449 0.207395,-0.771701 z"
         style="text-align:center;text-anchor:middle;fill:#5d5d5d;fill-opacity:1;stroke-width:0.26458332"
         id="path7856"
         inkscape:connector-curvature="0" />
      <path
         d="m 37.532759,30.809798 q 0,0.36897 -0.306269,0.605304 -0.303857,0.236333 -0.83199,0.236333 -0.299035,0 -0.549838,-0.06994 -0.248391,-0.07235 -0.417201,-0.156752 v -0.508841 h 0.02412 q 0.214629,0.161575 0.47749,0.258038 0.262861,0.09405 0.504018,0.09405 0.299034,0 0.467844,-0.09646 0.168809,-0.09646 0.168809,-0.303857 0,-0.159163 -0.09164,-0.241157 -0.09164,-0.08199 -0.352089,-0.139871 -0.09646,-0.0217 -0.253215,-0.05064 -0.15434,-0.02894 -0.282153,-0.0627 -0.3545,-0.09405 -0.504017,-0.274919 -0.147106,-0.183279 -0.147106,-0.448551 0,-0.166398 0.06752,-0.313504 0.06993,-0.147105 0.209806,-0.262861 0.135048,-0.113343 0.342443,-0.178456 0.209806,-0.06752 0.467844,-0.06752 0.241156,0 0.487136,0.06029 0.248392,0.05788 0.412378,0.142282 v 0.484725 h -0.02412 q -0.173632,-0.127813 -0.422024,-0.214629 -0.248391,-0.08923 -0.487136,-0.08923 -0.248392,0 -0.419613,0.09646 -0.171221,0.09405 -0.171221,0.282154 0,0.166398 0.103697,0.250803 0.101286,0.0844 0.327973,0.137459 0.125402,0.02894 0.279742,0.05788 0.156752,0.02894 0.260449,0.05306 0.315916,0.07235 0.487137,0.248391 0.171221,0.178456 0.171221,0.472667 z"
         style="text-align:center;text-anchor:middle;fill:#5d5d5d;fill-opacity:1;stroke-width:0.26458332"
         id="path7858"
         inkscape:connector-curvature="0" />
      <path
         d="m 40.108311,30.809798 q 0,0.36897 -0.306269,0.605304 -0.303857,0.236333 -0.83199,0.236333 -0.299035,0 -0.549838,-0.06994 -0.248391,-0.07235 -0.417201,-0.156752 v -0.508841 h 0.02412 q 0.214629,0.161575 0.47749,0.258038 0.262861,0.09405 0.504018,0.09405 0.299034,0 0.467844,-0.09646 0.168809,-0.09646 0.168809,-0.303857 0,-0.159163 -0.09164,-0.241157 -0.09164,-0.08199 -0.352089,-0.139871 -0.09646,-0.0217 -0.253215,-0.05064 -0.15434,-0.02894 -0.282153,-0.0627 -0.3545,-0.09405 -0.504017,-0.274919 -0.147106,-0.183279 -0.147106,-0.448551 0,-0.166398 0.06752,-0.313504 0.06994,-0.147105 0.209806,-0.262861 0.135048,-0.113343 0.342443,-0.178456 0.209806,-0.06752 0.467844,-0.06752 0.241156,0 0.487136,0.06029 0.248392,0.05788 0.412378,0.142282 v 0.484725 h -0.02412 q -0.173632,-0.127813 -0.422024,-0.214629 -0.248391,-0.08923 -0.487136,-0.08923 -0.248392,0 -0.419613,0.09646 -0.171221,0.09405 -0.171221,0.282154 0,0.166398 0.103697,0.250803 0.101286,0.0844 0.327973,0.137459 0.125402,0.02894 0.279742,0.05788 0.156752,0.02894 0.260449,0.05306 0.315916,0.07235 0.487137,0.248391 0.171221,0.178456 0.171221,0.472667 z"
         style="text-align:center;text-anchor:middle;fill:#5d5d5d;fill-opacity:1;stroke-width:0.26458332"
         id="path7860"
         inkscape:connector-curvature="0" />
      <path
         d="m 43.894471,31.562207 q -0.127813,0.03376 -0.279741,0.05547 -0.149517,0.0217 -0.267684,0.0217 -0.412378,0 -0.627007,-0.221864 -0.21463,-0.221864 -0.21463,-0.711412 V 29.27363 H 42.19914 v -0.381027 h 0.306269 V 28.11849 h 0.453375 v 0.774113 h 0.935687 v 0.381027 h -0.935687 v 1.227488 q 0,0.212218 0.0096,0.332796 0.0096,0.118167 0.06752,0.221864 0.05305,0.09646 0.144694,0.142283 0.09405,0.04341 0.284565,0.04341 0.110932,0 0.23151,-0.03135 0.120578,-0.03376 0.173633,-0.05547 h 0.02412 z"
         style="text-align:center;text-anchor:middle;fill:#5d5d5d;fill-opacity:1;stroke-width:0.26458332"
         id="path7862"
         inkscape:connector-curvature="0" />
      <path
         d="m 46.696712,31.586323 h -0.453375 v -1.533757 q 0,-0.18569 -0.0217,-0.347265 -0.0217,-0.163987 -0.07958,-0.255626 -0.06029,-0.101286 -0.173633,-0.149517 -0.113343,-0.05064 -0.294211,-0.05064 -0.18569,0 -0.388262,0.09164 -0.202572,0.09164 -0.388262,0.233922 v 2.011247 h -0.453375 v -3.752398 h 0.453375 v 1.357712 q 0.212218,-0.176044 0.438905,-0.274919 0.226687,-0.09887 0.465432,-0.09887 0.436494,0 0.665593,0.262861 0.229099,0.262861 0.229099,0.757232 z"
         style="text-align:center;text-anchor:middle;fill:#5d5d5d;fill-opacity:1;stroke-width:0.26458332"
         id="path7864"
         inkscape:connector-curvature="0" />
      <path
         d="m 49.824514,30.286488 h -1.984719 q 0,0.248392 0.07476,0.434082 0.07476,0.183279 0.204983,0.301446 0.125402,0.115755 0.296623,0.173633 0.173633,0.05788 0.381028,0.05788 0.274918,0 0.552248,-0.108521 0.279742,-0.110932 0.397909,-0.217041 h 0.02412 v 0.494371 q -0.229099,0.09646 -0.467844,0.161575 -0.238745,0.06511 -0.501606,0.06511 -0.670416,0 -1.04662,-0.361735 -0.376205,-0.364147 -0.376205,-1.032151 0,-0.660769 0.359324,-1.049032 0.361735,-0.388262 0.950157,-0.388262 0.545014,0 0.839225,0.318327 0.296623,0.318327 0.296623,0.904338 z m -0.441317,-0.347265 q -0.0024,-0.356912 -0.180867,-0.552249 -0.176044,-0.195337 -0.537779,-0.195337 -0.364147,0 -0.581188,0.21463 -0.214629,0.214629 -0.243568,0.532956 z"
         style="text-align:center;text-anchor:middle;fill:#5d5d5d;fill-opacity:1;stroke-width:0.26458332"
         id="path7866"
         inkscape:connector-curvature="0" />
      <path
         d="m 54.240093,31.417513 q -0.226687,0.108521 -0.43167,0.16881 -0.202572,0.06029 -0.43167,0.06029 -0.2918,0 -0.535368,-0.08441 -0.243568,-0.08682 -0.417201,-0.260449 -0.176045,-0.173633 -0.272507,-0.438905 -0.09646,-0.265273 -0.09646,-0.619773 0,-0.660769 0.361735,-1.036974 0.364147,-0.376204 0.959804,-0.376204 0.23151,0 0.453374,0.06511 0.224276,0.06511 0.409966,0.159164 v 0.504017 h -0.02412 q -0.207395,-0.161575 -0.429259,-0.248391 -0.219453,-0.08682 -0.429259,-0.08682 -0.385851,0 -0.610126,0.26045 -0.221864,0.258037 -0.221864,0.759643 0,0.487137 0.217041,0.749997 0.219452,0.26045 0.614949,0.26045 0.137459,0 0.279742,-0.03617 0.142282,-0.03617 0.255626,-0.09405 0.09887,-0.05064 0.18569,-0.106109 0.08682,-0.05788 0.13746,-0.09887 h 0.02412 z"
         style="text-align:center;text-anchor:middle;fill:#5d5d5d;fill-opacity:1;stroke-width:0.26458332"
         id="path7868"
         inkscape:connector-curvature="0" />
      <path
         d="m 57.119505,30.240669 q 0,0.658357 -0.33762,1.039385 -0.337619,0.381027 -0.904337,0.381027 -0.571541,0 -0.909161,-0.381027 -0.335208,-0.381028 -0.335208,-1.039385 0,-0.658358 0.335208,-1.039386 0.33762,-0.383439 0.909161,-0.383439 0.566718,0 0.904337,0.383439 0.33762,0.381028 0.33762,1.039386 z m -0.467844,0 q 0,-0.52331 -0.204983,-0.776525 -0.204984,-0.255626 -0.56913,-0.255626 -0.36897,0 -0.573953,0.255626 -0.202572,0.253215 -0.202572,0.776525 0,0.506429 0.204984,0.769289 0.204983,0.26045 0.571541,0.26045 0.361735,0 0.566718,-0.258038 0.207395,-0.260449 0.207395,-0.771701 z"
         style="text-align:center;text-anchor:middle;fill:#5d5d5d;fill-opacity:1;stroke-width:0.26458332"
         id="path7870"
         inkscape:connector-curvature="0" />
      <path
         d="m 58.310818,28.44164 h -0.511252 v -0.470256 h 0.511252 z m -0.02894,3.144683 h -0.453374 v -2.69372 h 0.453374 z"
         style="text-align:center;text-anchor:middle;fill:#5d5d5d;fill-opacity:1;stroke-width:0.26458332"
         id="path7872"
         inkscape:connector-curvature="0" />
      <path
         d="m 61.436208,31.586323 h -0.453375 v -1.533757 q 0,-0.18569 -0.0217,-0.347265 -0.0217,-0.163987 -0.07958,-0.255626 -0.06029,-0.101286 -0.173632,-0.149517 -0.113344,-0.05064 -0.294212,-0.05064 -0.18569,0 -0.388262,0.09164 -0.202571,0.09164 -0.388262,0.233922 v 2.011247 H 59.18381 v -2.69372 h 0.453375 v 0.299034 q 0.212218,-0.176044 0.438905,-0.274919 0.226687,-0.09887 0.465433,-0.09887 0.436493,0 0.665592,0.262861 0.229099,0.262861 0.229099,0.757232 z"
         style="text-align:center;text-anchor:middle;fill:#5d5d5d;fill-opacity:1;stroke-width:0.26458332"
         id="path7874"
         inkscape:connector-curvature="0" />
    </g>
    <g
       aria-label="tossing a coin and
counting the number
of heads"
       style="font-style:normal;font-weight:normal;font-size:4.93888855px;line-height:1.25;font-family:sans-serif;letter-spacing:0px;word-spacing:0px;fill:#000000;fill-opacity:1;stroke:none;stroke-width:0.26458332"
       id="text3525"
       transform="translate(1.2970308)">
      <path
         d="m 80.348186,32.58154 q -0.127813,0.03376 -0.279742,0.05547 -0.149517,0.0217 -0.267684,0.0217 -0.412378,0 -0.627007,-0.221864 -0.214629,-0.221864 -0.214629,-0.711412 v -1.432471 h -0.306269 v -0.381027 h 0.306269 v -0.774113 h 0.453374 v 0.774113 h 0.935688 v 0.381027 h -0.935688 v 1.227488 q 0,0.212218 0.0096,0.332796 0.0096,0.118167 0.06752,0.221864 0.05306,0.09646 0.144694,0.142282 0.09405,0.04341 0.284565,0.04341 0.110932,0 0.23151,-0.03135 0.120579,-0.03376 0.173633,-0.05547 h 0.02412 z"
         style="text-align:center;text-anchor:middle;stroke-width:0.26458332"
         id="path7877"
         inkscape:connector-curvature="0" />
      <path
         d="m 83.193835,31.260001 q 0,0.658358 -0.33762,1.039386 -0.337619,0.381027 -0.904337,0.381027 -0.571541,0 -0.909161,-0.381027 -0.335208,-0.381028 -0.335208,-1.039386 0,-0.658357 0.335208,-1.039385 0.33762,-0.383439 0.909161,-0.383439 0.566718,0 0.904337,0.383439 0.33762,0.381028 0.33762,1.039385 z m -0.467844,0 q 0,-0.52331 -0.204983,-0.776524 -0.204984,-0.255626 -0.56913,-0.255626 -0.36897,0 -0.573953,0.255626 -0.202572,0.253214 -0.202572,0.776524 0,0.506429 0.204984,0.76929 0.204983,0.260449 0.571541,0.260449 0.361735,0 0.566718,-0.258037 0.207395,-0.260449 0.207395,-0.771702 z"
         style="text-align:center;text-anchor:middle;stroke-width:0.26458332"
         id="path7879"
         inkscape:connector-curvature="0" />
      <path
         d="m 85.822442,31.829131 q 0,0.36897 -0.306269,0.605303 -0.303857,0.236334 -0.83199,0.236334 -0.299034,0 -0.549837,-0.06994 -0.248392,-0.07235 -0.417201,-0.156752 V 31.93524 h 0.02411 q 0.21463,0.161575 0.477491,0.258038 0.26286,0.09405 0.504017,0.09405 0.299034,0 0.467844,-0.09646 0.16881,-0.09646 0.16881,-0.303857 0,-0.159164 -0.09164,-0.241157 -0.09164,-0.08199 -0.352089,-0.139871 -0.09646,-0.0217 -0.253214,-0.05064 -0.15434,-0.02894 -0.282153,-0.0627 -0.354501,-0.09405 -0.504018,-0.274919 -0.147105,-0.183279 -0.147105,-0.448551 0,-0.166398 0.06752,-0.313504 0.06994,-0.147106 0.209807,-0.262861 0.135047,-0.113343 0.342442,-0.178456 0.209807,-0.06752 0.467844,-0.06752 0.241157,0 0.487137,0.06029 0.248391,0.05788 0.412378,0.142282 v 0.484725 h -0.02412 q -0.173633,-0.127813 -0.422024,-0.21463 -0.248392,-0.08923 -0.487137,-0.08923 -0.248391,0 -0.419612,0.09646 -0.171222,0.09405 -0.171222,0.282153 0,0.166399 0.103698,0.250803 0.101286,0.08441 0.327973,0.13746 0.125401,0.02894 0.279742,0.05788 0.156751,0.02894 0.260449,0.05306 0.315915,0.07235 0.487136,0.248391 0.171221,0.178456 0.171221,0.472667 z"
         style="text-align:center;text-anchor:middle;stroke-width:0.26458332"
         id="path7881"
         inkscape:connector-curvature="0" />
      <path
         d="m 88.397995,31.829131 q 0,0.36897 -0.306269,0.605303 -0.303857,0.236334 -0.83199,0.236334 -0.299034,0 -0.549837,-0.06994 -0.248392,-0.07235 -0.417201,-0.156752 V 31.93524 h 0.02411 q 0.21463,0.161575 0.477491,0.258038 0.26286,0.09405 0.504017,0.09405 0.299034,0 0.467844,-0.09646 0.16881,-0.09646 0.16881,-0.303857 0,-0.159164 -0.09164,-0.241157 -0.09164,-0.08199 -0.352089,-0.139871 -0.09646,-0.0217 -0.253214,-0.05064 -0.15434,-0.02894 -0.282153,-0.0627 -0.354501,-0.09405 -0.504018,-0.274919 -0.147105,-0.183279 -0.147105,-0.448551 0,-0.166398 0.06752,-0.313504 0.06994,-0.147106 0.209807,-0.262861 0.135047,-0.113343 0.342442,-0.178456 0.209806,-0.06752 0.467844,-0.06752 0.241157,0 0.487137,0.06029 0.248391,0.05788 0.412377,0.142282 v 0.484725 h -0.02412 q -0.173633,-0.127813 -0.422024,-0.21463 -0.248392,-0.08923 -0.487137,-0.08923 -0.248391,0 -0.419612,0.09646 -0.171222,0.09405 -0.171222,0.282153 0,0.166399 0.103698,0.250803 0.101286,0.08441 0.327973,0.13746 0.125401,0.02894 0.279742,0.05788 0.156751,0.02894 0.260449,0.05306 0.315915,0.07235 0.487136,0.248391 0.171221,0.178456 0.171221,0.472667 z"
         style="text-align:center;text-anchor:middle;stroke-width:0.26458332"
         id="path7883"
         inkscape:connector-curvature="0" />
      <path
         d="m 89.536256,29.460973 h -0.511253 v -0.470256 h 0.511253 z m -0.02894,3.144683 h -0.453375 v -2.69372 h 0.453375 z"
         style="text-align:center;text-anchor:middle;stroke-width:0.26458332"
         id="path7885"
         inkscape:connector-curvature="0" />
      <path
         d="m 92.661645,32.605656 h -0.453374 v -1.533757 q 0,-0.18569 -0.0217,-0.347265 -0.0217,-0.163987 -0.07958,-0.255626 -0.06029,-0.101286 -0.173633,-0.149518 -0.113344,-0.05064 -0.294211,-0.05064 -0.185691,0 -0.388262,0.09164 -0.202572,0.09164 -0.388263,0.233922 v 2.011247 h -0.453374 v -2.69372 h 0.453374 v 0.299034 q 0.212218,-0.176044 0.438905,-0.274919 0.226688,-0.09887 0.465433,-0.09887 0.436493,0 0.665592,0.262861 0.229099,0.262861 0.229099,0.757232 z"
         style="text-align:center;text-anchor:middle;stroke-width:0.26458332"
         id="path7887"
         inkscape:connector-curvature="0" />
      <path
         d="m 95.719512,32.299387 q 0,0.684885 -0.311092,1.005623 -0.311092,0.320738 -0.957392,0.320738 -0.214629,0 -0.419612,-0.03135 -0.202572,-0.02894 -0.400321,-0.0844 v -0.463021 h 0.02412 q 0.110932,0.04341 0.352089,0.106109 0.241157,0.06511 0.482313,0.06511 0.231511,0 0.383439,-0.05547 0.151929,-0.05547 0.236334,-0.154341 0.08441,-0.09405 0.120578,-0.226687 0.03617,-0.132636 0.03617,-0.296623 v -0.245979 q -0.204984,0.163986 -0.393086,0.245979 -0.18569,0.07958 -0.475078,0.07958 -0.482314,0 -0.766879,-0.347266 -0.282153,-0.349677 -0.282153,-0.983919 0,-0.347265 0.09646,-0.598068 0.09887,-0.253215 0.267684,-0.436494 0.156752,-0.171221 0.381027,-0.265272 0.224276,-0.09646 0.44614,-0.09646 0.233922,0 0.390674,0.04823 0.159163,0.04582 0.335208,0.142283 l 0.02894,-0.115755 h 0.424436 z m -0.453374,-0.434082 v -1.468644 q -0.180868,-0.08199 -0.33762,-0.115756 -0.15434,-0.03617 -0.30868,-0.03617 -0.373793,0 -0.588422,0.250803 -0.21463,0.250803 -0.21463,0.728293 0,0.453375 0.159163,0.687296 0.159164,0.233922 0.528134,0.233922 0.197748,0 0.395497,-0.07476 0.20016,-0.07717 0.366558,-0.204983 z"
         style="text-align:center;text-anchor:middle;stroke-width:0.26458332"
         id="path7889"
         inkscape:connector-curvature="0" />
      <path
         d="m 100.44136,32.605656 h -0.450962 v -0.286977 q -0.06029,0.041 -0.163987,0.115755 -0.101286,0.07235 -0.197748,0.115756 -0.113344,0.05547 -0.26045,0.09164 -0.147105,0.03858 -0.344854,0.03858 -0.364146,0 -0.617361,-0.241156 -0.253214,-0.241157 -0.253214,-0.61495 0,-0.306269 0.130224,-0.494371 0.132637,-0.190514 0.376205,-0.299034 0.24598,-0.108521 0.590834,-0.147106 0.344854,-0.03859 0.740351,-0.05788 v -0.06993 q 0,-0.15434 -0.05547,-0.255626 -0.05306,-0.101286 -0.154341,-0.159163 -0.09646,-0.05547 -0.23151,-0.07476 -0.135048,-0.01929 -0.282153,-0.01929 -0.178456,0 -0.397909,0.04823 -0.219452,0.04582 -0.453374,0.135048 h -0.02412 v -0.46061 q 0.132636,-0.03617 0.383439,-0.07958 0.250803,-0.04341 0.494371,-0.04341 0.284565,0 0.494371,0.04823 0.212218,0.04582 0.366558,0.159163 0.15193,0.110932 0.23151,0.286977 0.0796,0.176044 0.0796,0.436493 z m -0.450962,-0.663181 v -0.749997 q -0.207395,0.01206 -0.489548,0.03617 -0.279742,0.02412 -0.443729,0.06994 -0.195337,0.05547 -0.315915,0.173632 -0.120578,0.115756 -0.120578,0.320739 0,0.23151 0.139871,0.349677 0.139871,0.115755 0.426847,0.115755 0.238745,0 0.436494,-0.09164 0.197748,-0.09405 0.366558,-0.224276 z"
         style="text-align:center;text-anchor:middle;stroke-width:0.26458332"
         id="path7891"
         inkscape:connector-curvature="0" />
      <path
         d="m 105.04745,32.436846 q -0.22668,0.108521 -0.43167,0.16881 -0.20257,0.06029 -0.43167,0.06029 -0.2918,0 -0.53537,-0.08441 -0.24356,-0.08682 -0.4172,-0.260449 -0.17604,-0.173633 -0.2725,-0.438905 -0.0965,-0.265273 -0.0965,-0.619773 0,-0.660769 0.36174,-1.036974 0.36415,-0.376204 0.9598,-0.376204 0.23151,0 0.45338,0.06511 0.22427,0.06511 0.40996,0.159164 v 0.504017 h -0.0241 q -0.2074,-0.161575 -0.42926,-0.248391 -0.21945,-0.08682 -0.42926,-0.08682 -0.38585,0 -0.61013,0.26045 -0.22186,0.258037 -0.22186,0.759643 0,0.487137 0.21704,0.749997 0.21945,0.260449 0.61495,0.260449 0.13746,0 0.27974,-0.03617 0.14228,-0.03617 0.25563,-0.09405 0.0989,-0.05064 0.18569,-0.106109 0.0868,-0.05788 0.13746,-0.09887 h 0.0241 z"
         style="text-align:center;text-anchor:middle;stroke-width:0.26458332"
         id="path7893"
         inkscape:connector-curvature="0" />
      <path
         d="m 107.92686,31.260001 q 0,0.658358 -0.33762,1.039386 -0.33762,0.381027 -0.90433,0.381027 -0.57155,0 -0.90916,-0.381027 -0.33521,-0.381028 -0.33521,-1.039386 0,-0.658357 0.33521,-1.039385 0.33761,-0.383439 0.90916,-0.383439 0.56671,0 0.90433,0.383439 0.33762,0.381028 0.33762,1.039385 z m -0.46784,0 q 0,-0.52331 -0.20498,-0.776524 -0.20499,-0.255626 -0.56913,-0.255626 -0.36897,0 -0.57396,0.255626 -0.20257,0.253214 -0.20257,0.776524 0,0.506429 0.20498,0.76929 0.20499,0.260449 0.57155,0.260449 0.36173,0 0.56671,-0.258037 0.2074,-0.260449 0.2074,-0.771702 z"
         style="text-align:center;text-anchor:middle;stroke-width:0.26458332"
         id="path7895"
         inkscape:connector-curvature="0" />
      <path
         d="m 109.11818,29.460973 h -0.51126 v -0.470256 h 0.51126 z m -0.0289,3.144683 h -0.45338 v -2.69372 h 0.45338 z"
         style="text-align:center;text-anchor:middle;stroke-width:0.26458332"
         id="path7897"
         inkscape:connector-curvature="0" />
      <path
         d="m 112.24357,32.605656 h -0.45338 v -1.533757 q 0,-0.18569 -0.0217,-0.347265 -0.0217,-0.163987 -0.0796,-0.255626 -0.0603,-0.101286 -0.17364,-0.149518 -0.11334,-0.05064 -0.29421,-0.05064 -0.18569,0 -0.38826,0.09164 -0.20257,0.09164 -0.38826,0.233922 v 2.011247 h -0.45338 v -2.69372 h 0.45338 v 0.299034 q 0.21222,-0.176044 0.4389,-0.274919 0.22669,-0.09887 0.46544,-0.09887 0.43649,0 0.66559,0.262861 0.2291,0.262861 0.2291,0.757232 z"
         style="text-align:center;text-anchor:middle;stroke-width:0.26458332"
         id="path7899"
         inkscape:connector-curvature="0" />
      <path
         d="m 116.94612,32.605656 h -0.45096 v -0.286977 q -0.0603,0.041 -0.16399,0.115755 -0.10128,0.07235 -0.19775,0.115756 -0.11334,0.05547 -0.26045,0.09164 -0.1471,0.03858 -0.34485,0.03858 -0.36415,0 -0.61736,-0.241156 -0.25322,-0.241157 -0.25322,-0.61495 0,-0.306269 0.13023,-0.494371 0.13264,-0.190514 0.3762,-0.299034 0.24598,-0.108521 0.59084,-0.147106 0.34485,-0.03859 0.74035,-0.05788 v -0.06993 q 0,-0.15434 -0.0555,-0.255626 -0.053,-0.101286 -0.15434,-0.159163 -0.0965,-0.05547 -0.23151,-0.07476 -0.13505,-0.01929 -0.28215,-0.01929 -0.17846,0 -0.39791,0.04823 -0.21945,0.04582 -0.45337,0.135048 h -0.0241 v -0.46061 q 0.13264,-0.03617 0.38344,-0.07958 0.2508,-0.04341 0.49437,-0.04341 0.28456,0 0.49437,0.04823 0.21222,0.04582 0.36656,0.159163 0.15193,0.110932 0.23151,0.286977 0.0796,0.176044 0.0796,0.436493 z m -0.45096,-0.663181 v -0.749997 q -0.2074,0.01206 -0.48955,0.03617 -0.27974,0.02412 -0.44373,0.06994 -0.19533,0.05547 -0.31591,0.173632 -0.12058,0.115756 -0.12058,0.320739 0,0.23151 0.13987,0.349677 0.13987,0.115755 0.42685,0.115755 0.23874,0 0.43649,-0.09164 0.19775,-0.09405 0.36656,-0.224276 z"
         style="text-align:center;text-anchor:middle;stroke-width:0.26458332"
         id="path7901"
         inkscape:connector-curvature="0" />
      <path
         d="m 120.07634,32.605656 h -0.45338 v -1.533757 q 0,-0.18569 -0.0217,-0.347265 -0.0217,-0.163987 -0.0796,-0.255626 -0.0603,-0.101286 -0.17363,-0.149518 -0.11334,-0.05064 -0.29421,-0.05064 -0.18569,0 -0.38826,0.09164 -0.20257,0.09164 -0.38826,0.233922 v 2.011247 h -0.45338 v -2.69372 h 0.45338 v 0.299034 q 0.21221,-0.176044 0.4389,-0.274919 0.22669,-0.09887 0.46543,-0.09887 0.4365,0 0.6656,0.262861 0.2291,0.262861 0.2291,0.757232 z"
         style="text-align:center;text-anchor:middle;stroke-width:0.26458332"
         id="path7903"
         inkscape:connector-curvature="0" />
      <path
         d="m 123.1342,32.605656 h -0.45337 v -0.282154 q -0.19534,0.16881 -0.40756,0.262861 -0.21221,0.09405 -0.4606,0.09405 -0.48232,0 -0.76688,-0.371381 -0.28216,-0.371381 -0.28216,-1.029739 0,-0.342442 0.0965,-0.610126 0.0989,-0.267684 0.26527,-0.455786 0.16399,-0.18328 0.38103,-0.279742 0.21945,-0.09646 0.45337,-0.09646 0.21222,0 0.37621,0.04582 0.16398,0.04341 0.34485,0.137459 V 28.85326 h 0.45337 z m -0.45337,-0.663181 v -1.545814 q -0.18328,-0.08199 -0.32797,-0.113344 -0.1447,-0.03135 -0.31592,-0.03135 -0.38103,0 -0.59324,0.265272 -0.21222,0.265272 -0.21222,0.752409 0,0.479902 0.16398,0.730704 0.16399,0.248392 0.52573,0.248392 0.19292,0 0.39067,-0.08441 0.19775,-0.08682 0.36897,-0.221864 z"
         style="text-align:center;text-anchor:middle;stroke-width:0.26458332"
         id="path7905"
         inkscape:connector-curvature="0" />
      <path
         d="m 77.473598,38.610457 q -0.226687,0.10852 -0.43167,0.168809 -0.202572,0.06029 -0.43167,0.06029 -0.2918,0 -0.535368,-0.08441 -0.243568,-0.08682 -0.417201,-0.26045 -0.176045,-0.173632 -0.272507,-0.438905 -0.09646,-0.265272 -0.09646,-0.619772 0,-0.66077 0.361735,-1.036974 0.364147,-0.376204 0.959804,-0.376204 0.23151,0 0.453374,0.06511 0.224276,0.06511 0.409966,0.159163 v 0.504018 h -0.02411 q -0.207395,-0.161575 -0.429259,-0.248392 -0.219453,-0.08682 -0.429259,-0.08682 -0.385851,0 -0.610126,0.260449 -0.221864,0.258038 -0.221864,0.759644 0,0.487136 0.217041,0.749997 0.219452,0.260449 0.614949,0.260449 0.137459,0 0.279742,-0.03617 0.142282,-0.03617 0.255626,-0.09405 0.09887,-0.05064 0.185691,-0.106109 0.08682,-0.05788 0.137459,-0.09887 h 0.02411 z"
         style="text-align:center;text-anchor:middle;stroke-width:0.26458332"
         id="path7907"
         inkscape:connector-curvature="0" />
      <path
         d="m 80.353009,37.433612 q 0,0.658358 -0.337619,1.039385 -0.33762,0.381028 -0.904338,0.381028 -0.571541,0 -0.90916,-0.381028 -0.335208,-0.381027 -0.335208,-1.039385 0,-0.658358 0.335208,-1.039385 0.337619,-0.383439 0.90916,-0.383439 0.566718,0 0.904338,0.383439 0.337619,0.381027 0.337619,1.039385 z m -0.467844,0 q 0,-0.52331 -0.204983,-0.776524 -0.204983,-0.255626 -0.56913,-0.255626 -0.368969,0 -0.573953,0.255626 -0.202571,0.253214 -0.202571,0.776524 0,0.506429 0.204983,0.76929 0.204983,0.260449 0.571541,0.260449 0.361735,0 0.566718,-0.258038 0.207395,-0.260449 0.207395,-0.771701 z"
         style="text-align:center;text-anchor:middle;stroke-width:0.26458332"
         id="path7909"
         inkscape:connector-curvature="0" />
      <path
         d="m 83.290298,38.779266 h -0.453375 v -0.299034 q -0.229099,0.180868 -0.438905,0.27733 -0.209806,0.09646 -0.463021,0.09646 -0.424436,0 -0.660769,-0.258038 -0.236334,-0.260449 -0.236334,-0.762055 v -1.748386 h 0.453375 V 37.6193 q 0,0.204983 0.01929,0.352089 0.01929,0.144694 0.08199,0.248391 0.06511,0.106109 0.168809,0.15434 0.103698,0.04823 0.301446,0.04823 0.176045,0 0.383439,-0.09164 0.209807,-0.09164 0.390674,-0.233922 v -2.011247 h 0.453375 z"
         style="text-align:center;text-anchor:middle;stroke-width:0.26458332"
         id="path7911"
         inkscape:connector-curvature="0" />
      <path
         d="M 86.43498,38.779266 H 85.981606 V 37.24551 q 0,-0.185691 -0.0217,-0.347266 -0.0217,-0.163986 -0.07958,-0.255626 -0.06029,-0.101286 -0.173633,-0.149517 -0.113344,-0.05064 -0.294211,-0.05064 -0.185691,0 -0.388262,0.09164 -0.202572,0.09164 -0.388263,0.233922 v 2.011246 h -0.453374 v -2.69372 h 0.453374 v 0.299035 q 0.212218,-0.176045 0.438906,-0.274919 0.226687,-0.09887 0.465432,-0.09887 0.436494,0 0.665592,0.262861 0.229099,0.26286 0.229099,0.757232 z"
         style="text-align:center;text-anchor:middle;stroke-width:0.26458332"
         id="path7913"
         inkscape:connector-curvature="0" />
      <path
         d="m 88.706677,38.755151 q -0.127813,0.03376 -0.279742,0.05547 -0.149517,0.0217 -0.267684,0.0217 -0.412378,0 -0.627007,-0.221864 -0.21463,-0.221864 -0.21463,-0.711412 v -1.432471 h -0.306269 v -0.381028 h 0.306269 v -0.774113 h 0.453375 v 0.774113 h 0.935688 v 0.381028 h -0.935688 v 1.227487 q 0,0.212218 0.0096,0.332797 0.0096,0.118166 0.06752,0.221864 0.05305,0.09646 0.144694,0.142282 0.09405,0.04341 0.284565,0.04341 0.110932,0 0.23151,-0.03135 0.120578,-0.03376 0.173633,-0.05547 h 0.02412 z"
         style="text-align:center;text-anchor:middle;stroke-width:0.26458332"
         id="path7915"
         inkscape:connector-curvature="0" />
      <path
         d="m 89.74365,35.634583 h -0.511252 v -0.470255 h 0.511252 z m -0.02894,3.144683 h -0.453374 v -2.69372 h 0.453374 z"
         style="text-align:center;text-anchor:middle;stroke-width:0.26458332"
         id="path7917"
         inkscape:connector-curvature="0" />
      <path
         d="M 92.86904,38.779266 H 92.415666 V 37.24551 q 0,-0.185691 -0.0217,-0.347266 -0.0217,-0.163986 -0.07958,-0.255626 -0.06029,-0.101286 -0.173633,-0.149517 -0.113343,-0.05064 -0.294211,-0.05064 -0.185691,0 -0.388262,0.09164 -0.202572,0.09164 -0.388262,0.233922 v 2.011246 h -0.453375 v -2.69372 h 0.453375 v 0.299035 q 0.212217,-0.176045 0.438905,-0.274919 0.226687,-0.09887 0.465432,-0.09887 0.436494,0 0.665592,0.262861 0.229099,0.26286 0.229099,0.757232 z"
         style="text-align:center;text-anchor:middle;stroke-width:0.26458332"
         id="path7919"
         inkscape:connector-curvature="0" />
      <path
         d="m 95.926907,38.472997 q 0,0.684885 -0.311092,1.005624 -0.311092,0.320738 -0.957392,0.320738 -0.214629,0 -0.419612,-0.03135 -0.202572,-0.02894 -0.40032,-0.0844 v -0.463021 h 0.02411 q 0.110932,0.04341 0.352089,0.106109 0.241157,0.06511 0.482313,0.06511 0.231511,0 0.38344,-0.05547 0.151928,-0.05547 0.236333,-0.15434 0.0844,-0.09405 0.120578,-0.226687 0.03617,-0.132636 0.03617,-0.296623 v -0.24598 q -0.204983,0.163987 -0.393085,0.24598 -0.185691,0.07958 -0.475079,0.07958 -0.482313,0 -0.766878,-0.347266 -0.282154,-0.349677 -0.282154,-0.983919 0,-0.347266 0.09646,-0.598069 0.09887,-0.253214 0.267684,-0.436493 0.156752,-0.171221 0.381027,-0.265273 0.224276,-0.09646 0.44614,-0.09646 0.233922,0 0.390674,0.04823 0.159164,0.04582 0.335208,0.142283 l 0.02894,-0.115756 h 0.424435 z m -0.453374,-0.434082 v -1.468644 q -0.180868,-0.08199 -0.337619,-0.115755 -0.154341,-0.03617 -0.308681,-0.03617 -0.373793,0 -0.588422,0.250803 -0.21463,0.250802 -0.21463,0.728293 0,0.453374 0.159164,0.687296 0.159163,0.233922 0.528133,0.233922 0.197748,0 0.395497,-0.07476 0.20016,-0.07717 0.366558,-0.204984 z"
         style="text-align:center;text-anchor:middle;stroke-width:0.26458332"
         id="path7921"
         inkscape:connector-curvature="0" />
      <path
         d="m 99.954223,38.755151 q -0.127813,0.03376 -0.279742,0.05547 -0.149517,0.0217 -0.267684,0.0217 -0.412378,0 -0.627007,-0.221864 -0.21463,-0.221864 -0.21463,-0.711412 v -1.432471 h -0.306269 v -0.381028 h 0.306269 v -0.774113 h 0.453375 v 0.774113 h 0.935688 v 0.381028 h -0.935688 v 1.227487 q 0,0.212218 0.0096,0.332797 0.0096,0.118166 0.06752,0.221864 0.05306,0.09646 0.144694,0.142282 0.09405,0.04341 0.284565,0.04341 0.110932,0 0.23151,-0.03135 0.120579,-0.03376 0.173633,-0.05547 h 0.02412 z"
         style="text-align:center;text-anchor:middle;stroke-width:0.26458332"
         id="path7923"
         inkscape:connector-curvature="0" />
      <path
         d="m 102.75646,38.779266 h -0.45337 V 37.24551 q 0,-0.185691 -0.0217,-0.347266 -0.0217,-0.163986 -0.0796,-0.255626 -0.0603,-0.101286 -0.17363,-0.149517 -0.11334,-0.05064 -0.29421,-0.05064 -0.18569,0 -0.38826,0.09164 -0.20257,0.09164 -0.38826,0.233922 v 2.011246 h -0.45338 v -3.752397 h 0.45338 v 1.357712 q 0.21221,-0.176045 0.4389,-0.274919 0.22669,-0.09887 0.46543,-0.09887 0.4365,0 0.6656,0.262861 0.22909,0.26286 0.22909,0.757232 z"
         style="text-align:center;text-anchor:middle;stroke-width:0.26458332"
         id="path7925"
         inkscape:connector-curvature="0" />
      <path
         d="m 105.88427,37.479432 h -1.98472 q 0,0.248391 0.0747,0.434082 0.0748,0.183279 0.20499,0.301446 0.1254,0.115755 0.29662,0.173633 0.17363,0.05788 0.38103,0.05788 0.27492,0 0.55225,-0.10852 0.27974,-0.110932 0.39791,-0.217041 h 0.0241 v 0.494371 q -0.2291,0.09646 -0.46784,0.161575 -0.23875,0.06511 -0.50161,0.06511 -0.67041,0 -1.04662,-0.361735 -0.3762,-0.364146 -0.3762,-1.03215 0,-0.66077 0.35932,-1.049032 0.36174,-0.388262 0.95016,-0.388262 0.54501,0 0.83922,0.318327 0.29663,0.318326 0.29663,0.904337 z m -0.44132,-0.347266 q -0.002,-0.356912 -0.18087,-0.552248 -0.17604,-0.195337 -0.53778,-0.195337 -0.36414,0 -0.58119,0.214629 -0.21463,0.21463 -0.24356,0.532956 z"
         style="text-align:center;text-anchor:middle;stroke-width:0.26458332"
         id="path7927"
         inkscape:connector-curvature="0" />
      <path
         d="m 110.5603,38.779266 h -0.45338 V 37.24551 q 0,-0.185691 -0.0217,-0.347266 -0.0217,-0.163986 -0.0796,-0.255626 -0.0603,-0.101286 -0.17364,-0.149517 -0.11334,-0.05064 -0.29421,-0.05064 -0.18569,0 -0.38826,0.09164 -0.20257,0.09164 -0.38826,0.233922 v 2.011246 h -0.45338 v -2.69372 h 0.45338 v 0.299035 q 0.21221,-0.176045 0.4389,-0.274919 0.22669,-0.09887 0.46543,-0.09887 0.4365,0 0.6656,0.262861 0.2291,0.26286 0.2291,0.757232 z"
         style="text-align:center;text-anchor:middle;stroke-width:0.26458332"
         id="path7929"
         inkscape:connector-curvature="0" />
      <path
         d="m 113.66639,38.779266 h -0.45337 v -0.299034 q -0.2291,0.180868 -0.43891,0.27733 -0.2098,0.09646 -0.46302,0.09646 -0.42443,0 -0.66077,-0.258038 -0.23633,-0.260449 -0.23633,-0.762055 v -1.748386 h 0.45337 V 37.6193 q 0,0.204983 0.0193,0.352089 0.0193,0.144694 0.082,0.248391 0.0651,0.106109 0.16881,0.15434 0.1037,0.04823 0.30144,0.04823 0.17605,0 0.38344,-0.09164 0.20981,-0.09164 0.39068,-0.233922 v -2.011247 h 0.45337 z"
         style="text-align:center;text-anchor:middle;stroke-width:0.26458332"
         id="path7931"
         inkscape:connector-curvature="0" />
      <path
         d="m 118.48952,38.779266 h -0.45337 V 37.24551 q 0,-0.173633 -0.0169,-0.335208 -0.0145,-0.161575 -0.0651,-0.258037 -0.0555,-0.103698 -0.15917,-0.156752 -0.10369,-0.05306 -0.29903,-0.05306 -0.19051,0 -0.38103,0.09646 -0.19051,0.09405 -0.38103,0.241157 0.007,0.05547 0.0121,0.130224 0.005,0.07235 0.005,0.144694 v 1.72427 h -0.45337 V 37.24551 q 0,-0.178456 -0.0169,-0.337619 -0.0145,-0.161575 -0.0651,-0.258038 -0.0555,-0.103697 -0.15917,-0.15434 -0.10369,-0.05306 -0.29903,-0.05306 -0.18569,0 -0.37379,0.09164 -0.18569,0.09164 -0.37138,0.233922 v 2.011246 h -0.45338 v -2.69372 h 0.45338 v 0.299035 q 0.21221,-0.176045 0.42202,-0.274919 0.21222,-0.09887 0.45096,-0.09887 0.27492,0 0.46543,0.115755 0.19293,0.115755 0.28698,0.320738 0.27492,-0.23151 0.50161,-0.332796 0.22668,-0.103697 0.48472,-0.103697 0.44373,0 0.65354,0.270095 0.21221,0.267684 0.21221,0.749998 z"
         style="text-align:center;text-anchor:middle;stroke-width:0.26458332"
         id="path7933"
         inkscape:connector-curvature="0" />
      <path
         d="m 121.73308,37.411908 q 0,0.337619 -0.0965,0.607715 -0.094,0.270095 -0.25563,0.453374 -0.17122,0.190514 -0.3762,0.286977 -0.20498,0.09405 -0.45096,0.09405 -0.2291,0 -0.40032,-0.05547 -0.17123,-0.05306 -0.33762,-0.144694 l -0.0289,0.125401 h -0.42444 v -3.752397 h 0.45338 V 36.3677 q 0.19051,-0.156752 0.40514,-0.255626 0.21463,-0.101286 0.48231,-0.101286 0.47749,0 0.75241,0.366558 0.27733,0.366558 0.27733,1.034562 z m -0.46784,0.01206 q 0,-0.482313 -0.15917,-0.730705 -0.15916,-0.250803 -0.51366,-0.250803 -0.19775,0 -0.40032,0.08682 -0.20257,0.0844 -0.3762,0.219452 v 1.543403 q 0.19292,0.08682 0.33038,0.120578 0.13987,0.03376 0.31592,0.03376 0.3762,0 0.58842,-0.24598 0.21463,-0.248391 0.21463,-0.776525 z"
         style="text-align:center;text-anchor:middle;stroke-width:0.26458332"
         id="path7935"
         inkscape:connector-curvature="0" />
      <path
         d="m 124.69449,37.479432 h -1.98472 q 0,0.248391 0.0748,0.434082 0.0747,0.183279 0.20498,0.301446 0.1254,0.115755 0.29662,0.173633 0.17363,0.05788 0.38103,0.05788 0.27492,0 0.55225,-0.10852 0.27974,-0.110932 0.39791,-0.217041 h 0.0241 v 0.494371 q -0.2291,0.09646 -0.46784,0.161575 -0.23875,0.06511 -0.50161,0.06511 -0.67041,0 -1.04662,-0.361735 -0.3762,-0.364146 -0.3762,-1.03215 0,-0.66077 0.35932,-1.049032 0.36174,-0.388262 0.95016,-0.388262 0.54501,0 0.83922,0.318327 0.29663,0.318326 0.29663,0.904337 z m -0.44132,-0.347266 q -0.002,-0.356912 -0.18087,-0.552248 -0.17604,-0.195337 -0.53778,-0.195337 -0.36414,0 -0.58118,0.214629 -0.21463,0.21463 -0.24357,0.532956 z"
         style="text-align:center;text-anchor:middle;stroke-width:0.26458332"
         id="path7937"
         inkscape:connector-curvature="0" />
      <path
         d="m 127.06265,36.579918 h -0.0241 q -0.10129,-0.02412 -0.19775,-0.03376 -0.094,-0.01206 -0.22427,-0.01206 -0.20981,0 -0.40515,0.09405 -0.19533,0.09164 -0.3762,0.238745 v 1.912372 h -0.45338 v -2.69372 h 0.45338 v 0.397909 q 0.27009,-0.217041 0.47508,-0.306269 0.20739,-0.09164 0.42202,-0.09164 0.11817,0 0.17122,0.0072 0.0531,0.0048 0.15917,0.0217 z"
         style="text-align:center;text-anchor:middle;stroke-width:0.26458332"
         id="path7939"
         inkscape:connector-curvature="0" />
      <path
         d="m 93.201836,43.607223 q 0,0.658358 -0.337619,1.039385 -0.337619,0.381028 -0.904337,0.381028 -0.571542,0 -0.909161,-0.381028 -0.335208,-0.381027 -0.335208,-1.039385 0,-0.658358 0.335208,-1.039385 0.337619,-0.383439 0.909161,-0.383439 0.566718,0 0.904337,0.383439 0.337619,0.381027 0.337619,1.039385 z m -0.467844,0 q 0,-0.52331 -0.204983,-0.776525 -0.204983,-0.255626 -0.569129,-0.255626 -0.36897,0 -0.573953,0.255626 -0.202572,0.253215 -0.202572,0.776525 0,0.506429 0.204983,0.76929 0.204983,0.260449 0.571542,0.260449 0.361735,0 0.566718,-0.258038 0.207394,-0.260449 0.207394,-0.771701 z"
         style="text-align:center;text-anchor:middle;stroke-width:0.26458332"
         id="path7941"
         inkscape:connector-curvature="0" />
      <path
         d="m 95.355365,41.639384 h -0.02412 q -0.07476,-0.0217 -0.195337,-0.04341 -0.120578,-0.02412 -0.212218,-0.02412 -0.2918,0 -0.424436,0.130224 -0.130224,0.127813 -0.130224,0.465433 v 0.09164 h 0.817521 v 0.381028 h -0.803052 v 2.312692 H 93.93013 v -2.312692 h -0.306269 v -0.381028 h 0.306269 v -0.08923 q 0,-0.479902 0.238745,-0.735528 0.238745,-0.258037 0.689708,-0.258037 0.151928,0 0.272507,0.01447 0.12299,0.01447 0.224275,0.03376 z"
         style="text-align:center;text-anchor:middle;stroke-width:0.26458332"
         id="path7943"
         inkscape:connector-curvature="0" />
      <path
         d="m 99.631073,44.952877 h -0.453375 v -1.533756 q 0,-0.185691 -0.0217,-0.347266 -0.0217,-0.163986 -0.07958,-0.255626 -0.06029,-0.101286 -0.173633,-0.149517 -0.113344,-0.05064 -0.294211,-0.05064 -0.185691,0 -0.388263,0.09164 -0.202571,0.09164 -0.388262,0.233922 v 2.011247 H 97.37867 v -3.752398 h 0.453374 v 1.357712 q 0.212218,-0.176044 0.438905,-0.274918 0.226688,-0.09887 0.465433,-0.09887 0.436493,0 0.665592,0.26286 0.229099,0.262861 0.229099,0.757232 z"
         style="text-align:center;text-anchor:middle;stroke-width:0.26458332"
         id="path7945"
         inkscape:connector-curvature="0" />
      <path
         d="m 102.75888,43.653043 h -1.98472 q 0,0.248391 0.0748,0.434082 0.0748,0.183279 0.20499,0.301445 0.1254,0.115756 0.29662,0.173633 0.17363,0.05788 0.38103,0.05788 0.27492,0 0.55225,-0.108521 0.27974,-0.110932 0.39791,-0.217041 h 0.0241 v 0.494372 q -0.2291,0.09646 -0.46784,0.161574 -0.23875,0.06511 -0.50161,0.06511 -0.67041,0 -1.04662,-0.361735 -0.3762,-0.364147 -0.3762,-1.032151 0,-0.660769 0.35932,-1.049031 0.36174,-0.388262 0.95016,-0.388262 0.54501,0 0.83922,0.318326 0.29663,0.318327 0.29663,0.904338 z m -0.44132,-0.347266 q -0.002,-0.356912 -0.18087,-0.552249 -0.17604,-0.195337 -0.53778,-0.195337 -0.36414,0 -0.58119,0.21463 -0.21463,0.214629 -0.24356,0.532956 z"
         style="text-align:center;text-anchor:middle;stroke-width:0.26458332"
         id="path7947"
         inkscape:connector-curvature="0" />
      <path
         d="m 105.53941,44.952877 h -0.45096 v -0.286976 q -0.0603,0.041 -0.16399,0.115755 -0.10128,0.07235 -0.19775,0.115755 -0.11334,0.05547 -0.26045,0.09164 -0.1471,0.03858 -0.34485,0.03858 -0.36415,0 -0.61736,-0.241157 -0.25322,-0.241157 -0.25322,-0.61495 0,-0.306269 0.13023,-0.494371 0.13264,-0.190513 0.3762,-0.299034 0.24598,-0.10852 0.59084,-0.147106 0.34485,-0.03858 0.74035,-0.05788 v -0.06994 q 0,-0.15434 -0.0555,-0.255626 -0.053,-0.101285 -0.15434,-0.159163 -0.0965,-0.05547 -0.23151,-0.07476 -0.13505,-0.01929 -0.28215,-0.01929 -0.17846,0 -0.39791,0.04823 -0.21945,0.04582 -0.45337,0.135048 h -0.0241 v -0.460609 q 0.13264,-0.03617 0.38344,-0.07958 0.2508,-0.04341 0.49437,-0.04341 0.28457,0 0.49437,0.04823 0.21222,0.04582 0.36656,0.159164 0.15193,0.110932 0.23151,0.286976 0.0796,0.176044 0.0796,0.436494 z m -0.45096,-0.663181 v -0.749997 q -0.2074,0.01206 -0.48955,0.03617 -0.27974,0.02412 -0.44373,0.06994 -0.19533,0.05547 -0.31591,0.173633 -0.12058,0.115755 -0.12058,0.320738 0,0.23151 0.13987,0.349677 0.13987,0.115755 0.42685,0.115755 0.23874,0 0.43649,-0.09164 0.19775,-0.09405 0.36656,-0.224276 z"
         style="text-align:center;text-anchor:middle;stroke-width:0.26458332"
         id="path7949"
         inkscape:connector-curvature="0" />
      <path
         d="m 108.6021,44.952877 h -0.45337 v -0.282153 q -0.19534,0.168809 -0.40756,0.262861 -0.21222,0.09405 -0.46061,0.09405 -0.48231,0 -0.76688,-0.371382 -0.28215,-0.371381 -0.28215,-1.029739 0,-0.342442 0.0965,-0.610126 0.0989,-0.267684 0.26528,-0.455786 0.16398,-0.183279 0.38102,-0.279742 0.21946,-0.09646 0.45338,-0.09646 0.21222,0 0.3762,0.04582 0.16399,0.04341 0.34486,0.13746 v -1.167199 h 0.45337 z m -0.45337,-0.663181 v -1.545814 q -0.18328,-0.08199 -0.32798,-0.113344 -0.14469,-0.03135 -0.31591,-0.03135 -0.38103,0 -0.59325,0.265272 -0.21221,0.265273 -0.21221,0.752409 0,0.479902 0.16398,0.730705 0.16399,0.248391 0.52572,0.248391 0.19293,0 0.39068,-0.0844 0.19775,-0.08682 0.36897,-0.221864 z"
         style="text-align:center;text-anchor:middle;stroke-width:0.26458332"
         id="path7951"
         inkscape:connector-curvature="0" />
      <path
         d="m 111.41881,44.176353 q 0,0.368969 -0.30627,0.605303 -0.30386,0.236333 -0.83199,0.236333 -0.29903,0 -0.54984,-0.06994 -0.24839,-0.07235 -0.4172,-0.156752 v -0.50884 h 0.0241 q 0.21463,0.161574 0.47749,0.258037 0.26286,0.09405 0.50402,0.09405 0.29903,0 0.46784,-0.09646 0.16881,-0.09646 0.16881,-0.303858 0,-0.159163 -0.0916,-0.241156 -0.0916,-0.08199 -0.35209,-0.139871 -0.0965,-0.0217 -0.25321,-0.05064 -0.15434,-0.02894 -0.28216,-0.0627 -0.3545,-0.09405 -0.50401,-0.274919 -0.14711,-0.183279 -0.14711,-0.448551 0,-0.166398 0.0675,-0.313504 0.0699,-0.147105 0.2098,-0.26286 0.13505,-0.113344 0.34244,-0.178456 0.20981,-0.06752 0.46785,-0.06752 0.24115,0 0.48713,0.06029 0.2484,0.05788 0.41238,0.142282 v 0.484725 h -0.0241 q -0.17364,-0.127813 -0.42203,-0.214629 -0.24839,-0.08923 -0.48713,-0.08923 -0.2484,0 -0.41962,0.09646 -0.17122,0.09405 -0.17122,0.282153 0,0.166398 0.1037,0.250803 0.10129,0.08441 0.32797,0.137459 0.1254,0.02894 0.27974,0.05788 0.15676,0.02894 0.26045,0.05305 0.31592,0.07235 0.48714,0.248392 0.17122,0.178455 0.17122,0.472667 z"
         style="text-align:center;text-anchor:middle;stroke-width:0.26458332"
         id="path7953"
         inkscape:connector-curvature="0" />
    </g>
    <g
       aria-label="number of heads
we count"
       style="font-style:normal;font-weight:normal;font-size:4.93888855px;line-height:1.25;font-family:sans-serif;letter-spacing:0px;word-spacing:0px;fill:#000000;fill-opacity:1;stroke:none;stroke-width:0.26458332"
       id="text3533"
       transform="translate(-1.8520936)">
      <path
         d="m 146.25175,25.412712 h -0.45337 v -1.533756 q 0,-0.185691 -0.0217,-0.347266 -0.0217,-0.163986 -0.0796,-0.255626 -0.0603,-0.101286 -0.17363,-0.149517 -0.11334,-0.05064 -0.29421,-0.05064 -0.18569,0 -0.38826,0.09164 -0.20257,0.09164 -0.38826,0.233921 v 2.011247 h -0.45338 v -2.69372 h 0.45338 v 0.299034 q 0.21221,-0.176044 0.4389,-0.274918 0.22669,-0.09887 0.46543,-0.09887 0.4365,0 0.6656,0.26286 0.22909,0.262861 0.22909,0.757232 z"
         style="text-align:center;text-anchor:middle;fill:#5d5d5d;fill-opacity:1;stroke-width:0.26458332"
         id="path7956"
         inkscape:connector-curvature="0" />
      <path
         d="m 149.35785,25.412712 h -0.45337 v -0.299034 q -0.2291,0.180867 -0.43891,0.27733 -0.2098,0.09646 -0.46302,0.09646 -0.42443,0 -0.66077,-0.258038 -0.23633,-0.260449 -0.23633,-0.762055 v -1.748386 h 0.45337 v 1.533757 q 0,0.204983 0.0193,0.352088 0.0193,0.144694 0.082,0.248392 0.0651,0.106109 0.16881,0.15434 0.1037,0.04823 0.30145,0.04823 0.17604,0 0.38343,-0.09164 0.20981,-0.09164 0.39068,-0.233922 v -2.011247 h 0.45337 z"
         style="text-align:center;text-anchor:middle;fill:#5d5d5d;fill-opacity:1;stroke-width:0.26458332"
         id="path7958"
         inkscape:connector-curvature="0" />
      <path
         d="m 154.18099,25.412712 h -0.45338 v -1.533756 q 0,-0.173633 -0.0169,-0.335208 -0.0145,-0.161575 -0.0651,-0.258038 -0.0555,-0.103697 -0.15917,-0.156752 -0.10369,-0.05305 -0.29903,-0.05305 -0.19051,0 -0.38103,0.09646 -0.19051,0.09405 -0.38102,0.241156 0.007,0.05547 0.0121,0.130225 0.005,0.07235 0.005,0.144694 v 1.72427 h -0.45338 v -1.533756 q 0,-0.178456 -0.0169,-0.33762 -0.0145,-0.161575 -0.0651,-0.258037 -0.0555,-0.103698 -0.15916,-0.154341 -0.1037,-0.05305 -0.29904,-0.05305 -0.18569,0 -0.37379,0.09164 -0.18569,0.09164 -0.37138,0.233921 v 2.011247 h -0.45338 v -2.69372 h 0.45338 v 0.299034 q 0.21221,-0.176044 0.42202,-0.274918 0.21222,-0.09887 0.45096,-0.09887 0.27492,0 0.46544,0.115755 0.19292,0.115755 0.28697,0.320738 0.27492,-0.23151 0.50161,-0.332796 0.22669,-0.103697 0.48472,-0.103697 0.44373,0 0.65354,0.270095 0.21222,0.267684 0.21222,0.749997 z"
         style="text-align:center;text-anchor:middle;fill:#5d5d5d;fill-opacity:1;stroke-width:0.26458332"
         id="path7960"
         inkscape:connector-curvature="0" />
      <path
         d="m 157.42454,24.045354 q 0,0.337619 -0.0965,0.607715 -0.0941,0.270095 -0.25563,0.453374 -0.17122,0.190514 -0.3762,0.286977 -0.20498,0.09405 -0.45096,0.09405 -0.2291,0 -0.40032,-0.05547 -0.17122,-0.05306 -0.33762,-0.144694 l -0.0289,0.125401 h -0.42444 v -3.752398 h 0.45338 v 1.340831 q 0.19051,-0.156751 0.40514,-0.255626 0.21463,-0.101285 0.48231,-0.101285 0.47749,0 0.75241,0.366558 0.27733,0.366558 0.27733,1.034562 z m -0.46784,0.01206 q 0,-0.482314 -0.15916,-0.730705 -0.15917,-0.250803 -0.51367,-0.250803 -0.19775,0 -0.40032,0.08682 -0.20257,0.08441 -0.3762,0.219453 v 1.543403 q 0.19292,0.08682 0.33038,0.120578 0.13987,0.03376 0.31592,0.03376 0.3762,0 0.58842,-0.24598 0.21463,-0.248391 0.21463,-0.776524 z"
         style="text-align:center;text-anchor:middle;fill:#5d5d5d;fill-opacity:1;stroke-width:0.26458332"
         id="path7962"
         inkscape:connector-curvature="0" />
      <path
         d="m 160.38595,24.112878 h -1.98472 q 0,0.248391 0.0748,0.434082 0.0747,0.183279 0.20498,0.301445 0.1254,0.115756 0.29662,0.173633 0.17363,0.05788 0.38103,0.05788 0.27492,0 0.55225,-0.108521 0.27974,-0.110932 0.39791,-0.217041 h 0.0241 v 0.494372 q -0.2291,0.09646 -0.46784,0.161575 -0.23875,0.06511 -0.50161,0.06511 -0.67041,0 -1.04662,-0.361735 -0.3762,-0.364147 -0.3762,-1.032151 0,-0.660769 0.35932,-1.049031 0.36174,-0.388262 0.95016,-0.388262 0.54501,0 0.83922,0.318326 0.29663,0.318327 0.29663,0.904338 z m -0.44132,-0.347266 q -0.002,-0.356912 -0.18087,-0.552249 -0.17604,-0.195337 -0.53778,-0.195337 -0.36414,0 -0.58118,0.21463 -0.21463,0.214629 -0.24357,0.532956 z"
         style="text-align:center;text-anchor:middle;fill:#5d5d5d;fill-opacity:1;stroke-width:0.26458332"
         id="path7964"
         inkscape:connector-curvature="0" />
      <path
         d="m 162.75411,23.213363 h -0.0241 q -0.10129,-0.02412 -0.19775,-0.03376 -0.0941,-0.01206 -0.22427,-0.01206 -0.20981,0 -0.40515,0.09405 -0.19533,0.09164 -0.3762,0.238745 v 1.912372 h -0.45338 v -2.69372 h 0.45338 v 0.397909 q 0.27009,-0.217041 0.47508,-0.306269 0.20739,-0.09164 0.42202,-0.09164 0.11817,0 0.17122,0.0072 0.0531,0.0048 0.15917,0.0217 z"
         style="text-align:center;text-anchor:middle;fill:#5d5d5d;fill-opacity:1;stroke-width:0.26458332"
         id="path7966"
         inkscape:connector-curvature="0" />
      <path
         d="m 167.21792,24.067058 q 0,0.658358 -0.33762,1.039385 -0.33762,0.381028 -0.90434,0.381028 -0.57154,0 -0.90916,-0.381028 -0.33521,-0.381027 -0.33521,-1.039385 0,-0.658358 0.33521,-1.039385 0.33762,-0.383439 0.90916,-0.383439 0.56672,0 0.90434,0.383439 0.33762,0.381027 0.33762,1.039385 z m -0.46785,0 q 0,-0.52331 -0.20498,-0.776525 -0.20499,-0.255626 -0.56913,-0.255626 -0.36897,0 -0.57395,0.255626 -0.20258,0.253215 -0.20258,0.776525 0,0.506429 0.20499,0.76929 0.20498,0.260449 0.57154,0.260449 0.36173,0 0.56672,-0.258038 0.20739,-0.260449 0.20739,-0.771701 z"
         style="text-align:center;text-anchor:middle;fill:#5d5d5d;fill-opacity:1;stroke-width:0.26458332"
         id="path7968"
         inkscape:connector-curvature="0" />
      <path
         d="m 169.37144,22.099219 h -0.0241 q -0.0748,-0.0217 -0.19534,-0.04341 -0.12058,-0.02411 -0.21222,-0.02411 -0.2918,0 -0.42443,0.130224 -0.13023,0.127813 -0.13023,0.465433 v 0.09164 h 0.81752 v 0.381028 h -0.80305 v 2.312692 h -0.45337 V 23.10002 h -0.30627 v -0.381028 h 0.30627 v -0.08923 q 0,-0.479902 0.23874,-0.735528 0.23875,-0.258037 0.68971,-0.258037 0.15193,0 0.27251,0.01447 0.12299,0.01447 0.22427,0.03376 z"
         style="text-align:center;text-anchor:middle;fill:#5d5d5d;fill-opacity:1;stroke-width:0.26458332"
         id="path7970"
         inkscape:connector-curvature="0" />
      <path
         d="m 173.64715,25.412712 h -0.45337 v -1.533756 q 0,-0.185691 -0.0217,-0.347266 -0.0217,-0.163986 -0.0796,-0.255626 -0.0603,-0.101286 -0.17363,-0.149517 -0.11334,-0.05064 -0.29421,-0.05064 -0.18569,0 -0.38826,0.09164 -0.20258,0.09164 -0.38827,0.233921 v 2.011247 h -0.45337 v -3.752398 h 0.45337 v 1.357712 q 0.21222,-0.176044 0.43891,-0.274918 0.22669,-0.09887 0.46543,-0.09887 0.43649,0 0.66559,0.26286 0.2291,0.262861 0.2291,0.757232 z"
         style="text-align:center;text-anchor:middle;fill:#5d5d5d;fill-opacity:1;stroke-width:0.26458332"
         id="path7972"
         inkscape:connector-curvature="0" />
      <path
         d="m 176.77495,24.112878 h -1.98471 q 0,0.248391 0.0747,0.434082 0.0748,0.183279 0.20499,0.301445 0.1254,0.115756 0.29662,0.173633 0.17363,0.05788 0.38103,0.05788 0.27492,0 0.55225,-0.108521 0.27974,-0.110932 0.3979,-0.217041 h 0.0241 v 0.494372 q -0.2291,0.09646 -0.46784,0.161575 -0.23875,0.06511 -0.50161,0.06511 -0.67042,0 -1.04662,-0.361735 -0.3762,-0.364147 -0.3762,-1.032151 0,-0.660769 0.35932,-1.049031 0.36173,-0.388262 0.95016,-0.388262 0.54501,0 0.83922,0.318326 0.29662,0.318327 0.29662,0.904338 z m -0.44131,-0.347266 q -0.002,-0.356912 -0.18087,-0.552249 -0.17604,-0.195337 -0.53778,-0.195337 -0.36415,0 -0.58119,0.21463 -0.21463,0.214629 -0.24356,0.532956 z"
         style="text-align:center;text-anchor:middle;fill:#5d5d5d;fill-opacity:1;stroke-width:0.26458332"
         id="path7974"
         inkscape:connector-curvature="0" />
      <path
         d="m 179.55549,25.412712 h -0.45096 v -0.286976 q -0.0603,0.041 -0.16399,0.115755 -0.10129,0.07235 -0.19775,0.115755 -0.11334,0.05547 -0.26045,0.09164 -0.1471,0.03858 -0.34485,0.03858 -0.36415,0 -0.61736,-0.241157 -0.25322,-0.241157 -0.25322,-0.61495 0,-0.306268 0.13023,-0.494371 0.13263,-0.190513 0.3762,-0.299034 0.24598,-0.10852 0.59084,-0.147106 0.34485,-0.03859 0.74035,-0.05788 v -0.06994 q 0,-0.15434 -0.0555,-0.255626 -0.053,-0.101285 -0.15434,-0.159163 -0.0965,-0.05547 -0.23151,-0.07476 -0.13505,-0.01929 -0.28215,-0.01929 -0.17846,0 -0.39791,0.04823 -0.21945,0.04582 -0.45338,0.135048 h -0.0241 V 22.77687 q 0.13263,-0.03617 0.38344,-0.07958 0.2508,-0.04341 0.49437,-0.04341 0.28456,0 0.49437,0.04823 0.21222,0.04582 0.36656,0.159164 0.15193,0.110932 0.23151,0.286976 0.0796,0.176044 0.0796,0.436494 z m -0.45096,-0.663181 v -0.749997 q -0.2074,0.01206 -0.48955,0.03617 -0.27974,0.02412 -0.44373,0.06994 -0.19534,0.05547 -0.31591,0.173633 -0.12058,0.115755 -0.12058,0.320738 0,0.231511 0.13987,0.349677 0.13987,0.115755 0.42684,0.115755 0.23875,0 0.4365,-0.09164 0.19775,-0.09405 0.36656,-0.224276 z"
         style="text-align:center;text-anchor:middle;fill:#5d5d5d;fill-opacity:1;stroke-width:0.26458332"
         id="path7976"
         inkscape:connector-curvature="0" />
      <path
         d="m 182.61818,25.412712 h -0.45338 v -0.282153 q -0.19533,0.168809 -0.40755,0.262861 -0.21222,0.09405 -0.46061,0.09405 -0.48231,0 -0.76688,-0.371382 -0.28215,-0.371381 -0.28215,-1.029739 0,-0.342442 0.0965,-0.610126 0.0989,-0.267684 0.26527,-0.455786 0.16399,-0.183279 0.38103,-0.279742 0.21945,-0.09646 0.45338,-0.09646 0.21221,0 0.3762,0.04582 0.16399,0.04341 0.34485,0.13746 v -1.167199 h 0.45338 z m -0.45338,-0.663181 v -1.545814 q -0.18327,-0.08199 -0.32797,-0.113344 -0.14469,-0.03135 -0.31591,-0.03135 -0.38103,0 -0.59325,0.265272 -0.21222,0.265273 -0.21222,0.752409 0,0.479902 0.16399,0.730705 0.16399,0.248391 0.52572,0.248391 0.19293,0 0.39068,-0.08441 0.19774,-0.08682 0.36896,-0.221864 z"
         style="text-align:center;text-anchor:middle;fill:#5d5d5d;fill-opacity:1;stroke-width:0.26458332"
         id="path7978"
         inkscape:connector-curvature="0" />
      <path
         d="m 185.43489,24.636188 q 0,0.368969 -0.30627,0.605303 -0.30386,0.236333 -0.83199,0.236333 -0.29903,0 -0.54984,-0.06993 -0.24839,-0.07235 -0.4172,-0.156752 v -0.50884 h 0.0241 q 0.21463,0.161575 0.47749,0.258037 0.26286,0.09405 0.50402,0.09405 0.29903,0 0.46784,-0.09646 0.16881,-0.09646 0.16881,-0.303858 0,-0.159163 -0.0916,-0.241156 -0.0916,-0.08199 -0.35209,-0.139871 -0.0965,-0.0217 -0.25321,-0.05064 -0.15434,-0.02894 -0.28216,-0.0627 -0.3545,-0.09405 -0.50401,-0.274919 -0.14711,-0.183279 -0.14711,-0.448551 0,-0.166398 0.0675,-0.313504 0.0699,-0.147105 0.20981,-0.26286 0.13505,-0.113344 0.34244,-0.178456 0.20981,-0.06752 0.46785,-0.06752 0.24115,0 0.48713,0.06029 0.24839,0.05788 0.41238,0.142282 v 0.484725 h -0.0241 q -0.17364,-0.127813 -0.42203,-0.214629 -0.24839,-0.08923 -0.48714,-0.08923 -0.24839,0 -0.41961,0.09646 -0.17122,0.09405 -0.17122,0.282153 0,0.166398 0.1037,0.250803 0.10128,0.08441 0.32797,0.137459 0.1254,0.02894 0.27974,0.05788 0.15675,0.02894 0.26045,0.05305 0.31592,0.07235 0.48714,0.248392 0.17122,0.178455 0.17122,0.472667 z"
         style="text-align:center;text-anchor:middle;fill:#5d5d5d;fill-opacity:1;stroke-width:0.26458332"
         id="path7980"
         inkscape:connector-curvature="0" />
      <path
         d="m 157.18339,28.892603 -0.70177,2.69372 h -0.41961 l -0.69212,-2.076359 -0.6873,2.076359 h -0.4172 l -0.709,-2.69372 h 0.47267 l 0.49437,2.086005 0.67283,-2.086005 h 0.37379 l 0.68971,2.086005 0.46784,-2.086005 z"
         style="text-align:center;text-anchor:middle;fill:#5d5d5d;fill-opacity:1;stroke-width:0.26458332"
         id="path7982"
         inkscape:connector-curvature="0" />
      <path
         d="m 160.09174,30.286488 h -1.98472 q 0,0.248392 0.0747,0.434082 0.0748,0.183279 0.20499,0.301446 0.1254,0.115755 0.29662,0.173633 0.17363,0.05788 0.38103,0.05788 0.27492,0 0.55225,-0.108521 0.27974,-0.110932 0.39791,-0.217041 h 0.0241 v 0.494371 q -0.2291,0.09646 -0.46784,0.161575 -0.23875,0.06511 -0.50161,0.06511 -0.67041,0 -1.04662,-0.361735 -0.3762,-0.364147 -0.3762,-1.032151 0,-0.660769 0.35932,-1.049032 0.36174,-0.388262 0.95016,-0.388262 0.54501,0 0.83922,0.318327 0.29663,0.318327 0.29663,0.904338 z m -0.44132,-0.347265 q -0.002,-0.356912 -0.18087,-0.552249 -0.17604,-0.195337 -0.53778,-0.195337 -0.36414,0 -0.58119,0.21463 -0.21462,0.214629 -0.24356,0.532956 z"
         style="text-align:center;text-anchor:middle;fill:#5d5d5d;fill-opacity:1;stroke-width:0.26458332"
         id="path7984"
         inkscape:connector-curvature="0" />
      <path
         d="m 164.50731,31.417513 q -0.22668,0.108521 -0.43167,0.16881 -0.20257,0.06029 -0.43167,0.06029 -0.2918,0 -0.53536,-0.08441 -0.24357,-0.08682 -0.41721,-0.260449 -0.17604,-0.173633 -0.2725,-0.438905 -0.0965,-0.265273 -0.0965,-0.619773 0,-0.660769 0.36173,-1.036974 0.36415,-0.376204 0.9598,-0.376204 0.23151,0 0.45338,0.06511 0.22427,0.06511 0.40996,0.159164 v 0.504017 h -0.0241 q -0.2074,-0.161575 -0.42926,-0.248391 -0.21945,-0.08682 -0.42926,-0.08682 -0.38585,0 -0.61013,0.26045 -0.22186,0.258037 -0.22186,0.759643 0,0.487137 0.21704,0.749997 0.21945,0.26045 0.61495,0.26045 0.13746,0 0.27974,-0.03617 0.14229,-0.03617 0.25563,-0.09405 0.0989,-0.05064 0.18569,-0.106109 0.0868,-0.05788 0.13746,-0.09887 h 0.0241 z"
         style="text-align:center;text-anchor:middle;fill:#5d5d5d;fill-opacity:1;stroke-width:0.26458332"
         id="path7986"
         inkscape:connector-curvature="0" />
      <path
         d="m 167.38672,30.240669 q 0,0.658357 -0.33761,1.039385 -0.33762,0.381027 -0.90434,0.381027 -0.57154,0 -0.90916,-0.381027 -0.33521,-0.381028 -0.33521,-1.039385 0,-0.658358 0.33521,-1.039386 0.33762,-0.383439 0.90916,-0.383439 0.56672,0 0.90434,0.383439 0.33761,0.381028 0.33761,1.039386 z m -0.46784,0 q 0,-0.52331 -0.20498,-0.776525 -0.20499,-0.255626 -0.56913,-0.255626 -0.36897,0 -0.57395,0.255626 -0.20258,0.253215 -0.20258,0.776525 0,0.506429 0.20499,0.769289 0.20498,0.26045 0.57154,0.26045 0.36173,0 0.56672,-0.258038 0.20739,-0.260449 0.20739,-0.771701 z"
         style="text-align:center;text-anchor:middle;fill:#5d5d5d;fill-opacity:1;stroke-width:0.26458332"
         id="path7988"
         inkscape:connector-curvature="0" />
      <path
         d="m 170.32401,31.586323 h -0.45337 v -0.299034 q -0.2291,0.180867 -0.43891,0.27733 -0.2098,0.09646 -0.46302,0.09646 -0.42443,0 -0.66077,-0.258037 -0.23633,-0.260449 -0.23633,-0.762055 v -1.748386 h 0.45337 v 1.533756 q 0,0.204983 0.0193,0.352089 0.0193,0.144694 0.082,0.248391 0.0651,0.106109 0.16881,0.154341 0.1037,0.04823 0.30145,0.04823 0.17604,0 0.38343,-0.09164 0.20981,-0.09164 0.39068,-0.233922 V 28.8926 h 0.45337 z"
         style="text-align:center;text-anchor:middle;fill:#5d5d5d;fill-opacity:1;stroke-width:0.26458332"
         id="path7990"
         inkscape:connector-curvature="0" />
      <path
         d="m 173.4687,31.586323 h -0.45338 v -1.533757 q 0,-0.18569 -0.0217,-0.347265 -0.0217,-0.163987 -0.0796,-0.255626 -0.0603,-0.101286 -0.17364,-0.149517 -0.11334,-0.05064 -0.29421,-0.05064 -0.18569,0 -0.38826,0.09164 -0.20257,0.09164 -0.38826,0.233922 v 2.011247 h -0.45338 v -2.69372 h 0.45338 v 0.299034 q 0.21222,-0.176044 0.4389,-0.274919 0.22669,-0.09887 0.46544,-0.09887 0.43649,0 0.66559,0.262861 0.2291,0.262861 0.2291,0.757232 z"
         style="text-align:center;text-anchor:middle;fill:#5d5d5d;fill-opacity:1;stroke-width:0.26458332"
         id="path7992"
         inkscape:connector-curvature="0" />
      <path
         d="m 175.74039,31.562207 q -0.12781,0.03376 -0.27974,0.05547 -0.14952,0.0217 -0.26768,0.0217 -0.41238,0 -0.62701,-0.221864 -0.21463,-0.221864 -0.21463,-0.711412 V 29.27363 h -0.30627 v -0.381027 h 0.30627 V 28.11849 h 0.45337 v 0.774113 h 0.93569 v 0.381027 h -0.93569 v 1.227488 q 0,0.212218 0.01,0.332796 0.01,0.118167 0.0675,0.221864 0.0531,0.09646 0.14469,0.142283 0.0941,0.04341 0.28456,0.04341 0.11094,0 0.23151,-0.03135 0.12058,-0.03376 0.17364,-0.05547 h 0.0241 z"
         style="text-align:center;text-anchor:middle;fill:#5d5d5d;fill-opacity:1;stroke-width:0.26458332"
         id="path7994"
         inkscape:connector-curvature="0" />
    </g>
    <g
       style="color:#5d5d5d;font-size:x-large"
       id="g7549"
       transform="matrix(0.00702734,0,0,0.00702734,23.221228,18.57383)">
      <g
         id="g7538"
         aria-hidden="true"
         transform="scale(1,-1)"
         style="fill:currentColor;stroke:currentColor;stroke-width:0">
        <use
           id="use7536"
           y="0"
           x="0"
           xlink:href="#E1-MJMATHI-78"
           width="100%"
           height="100%" />
      </g>
    </g>
    <g
       style="color:#5d5d5d;font-size:x-large"
       id="g7615"
       transform="matrix(0.00702642,0,0,0.00702642,142.00321,18.11191)">
      <g
         id="g7604"
         aria-hidden="true"
         transform="scale(1,-1)"
         style="fill:currentColor;stroke:currentColor;stroke-width:0">
        <use
           id="use7602"
           y="0"
           x="0"
           xlink:href="#E1-MJMATHI-79"
           width="100%"
           height="100%" />
      </g>
    </g>
  </g>
</svg>
